<svg id="Layer_1" enable-background="new 0 0 510 510" height="300" viewBox="0 0 510 510" width="300" xmlns="http://www.w3.org/2000/svg" version="1.1" xmlns:xlink="http://www.w3.org/1999/xlink" xmlns:svgjs="http://svgjs.dev/svgjs"><g width="100%" height="100%" transform="matrix(1,0,0,1,0,0)"><g><path d="m480 30v30h-45v-30h-30v30h-45v-30h-30v60h-150c0-20.885 0-39.115 0-60h-30v30h-45v-30h-30v30h-45v-30h-30v120h30v330h450v-330h30c0-9.445 0-104.931 0-120zm-150 90v30h30v30h-210v-30h30v-30zm60 240h60v30h-60zm-360-270h120v30h-120zm90 60v180h-60v-180zm-60 210h60v30h-60zm0 90v-30h60v30zm180 0h-30v-90c0-19.555 12.542-36.228 30-42.42zm30 0v-132.42c17.459 6.192 30 22.865 30 42.42v90zm90 0h-30v-90c0-41.355-33.645-75-75-75s-75 33.645-75 75v90h-30v-240h210zm30 0v-30h60v30zm60-120h-60c0-7.853 0-171.408 0-180h60zm30-210h-120v-30h120z" fill="#ffffff" fill-opacity="1" data-original-color="#000000ff" stroke="none" stroke-opacity="1"/><path d="m300 240h30v30h-30z" fill="#ffffff" fill-opacity="1" data-original-color="#000000ff" stroke="none" stroke-opacity="1"/><path d="m180 240h30v30h-30z" fill="#ffffff" fill-opacity="1" data-original-color="#000000ff" stroke="none" stroke-opacity="1"/></g></g></svg>