<svg height="512" viewBox="0 0 64 64" width="512" xmlns="http://www.w3.org/2000/svg"><g id="Layer_13" data-name="Layer 13"><path d="m5 57v-33a4 4 0 0 1 4-4h46a4 4 0 0 1 4 4v33z" fill="#004c9d"/><path d="m59 24a4 4 0 0 0 -4-4h-46a3.961 3.961 0 0 0 -1.64.36 3.961 3.961 0 0 0 -.36 1.64v9.265a20.736 20.736 0 0 0 20.735 20.735h31.265z" fill="#006bdb"/><path d="m9 24h46v32h-46z" fill="#c5ddef"/><path d="m55 24h-46v16.1a20.717 20.717 0 0 0 18.735 11.9h27.265z" fill="#e5eff8"/><path d="m38 54v2h-12v-2h-24v2a4 4 0 0 0 4 4h52a4 4 0 0 0 4-4v-2z" fill="#006bdb"/><g fill="#fff"><path d="m33 30h18v4h-18z"/><path d="m40 37h12v2h-12z"/><path d="m36 41h16v2h-16z"/><path d="m42 45h10v2h-10z"/><path d="m32 49h20v2h-20z"/></g><path d="m21 34-8 5v3l8-1h4l8 1v-3l-8-5z" fill="#004c9d"/><path d="m25 43.5 3 1.5v2h-10v-2l3.006-1.503z" fill="#004c9d"/><path d="m24.241 49.03a1.279 1.279 0 0 1 -1.241.97 1.281 1.281 0 0 1 -1.243-.971v-.006a25.307 25.307 0 0 1 -.757-6.139v-10.884a2 2 0 0 1 2-2 2 2 0 0 1 2 2v10.876a25.327 25.327 0 0 1 -.759 6.154z" fill="#004c9d"/><path d="m23.755 47.023v.006a1.272 1.272 0 0 0 .736.853 25.335 25.335 0 0 0 .509-5.006v-10.876a2 2 0 0 0 -2-2v10.884a25.307 25.307 0 0 0 .755 6.139z" fill="#006bdb"/><circle cx="32" cy="15" fill="#8dbf00" r="11"/><path d="m32 4a10.94 10.94 0 0 0 -6.706 2.294 10.987 10.987 0 0 0 15.412 15.412 10.987 10.987 0 0 0 -8.706-17.706z" fill="#a6d305"/><path d="m24 16 3-3 3 3 7-7 3 3-10 10z" fill="#fff"/></g></svg>