<svg id="Layer_1" enable-background="new 0 0 32 32" viewBox="0 0 32 32" xmlns="http://www.w3.org/2000/svg"><circle cx="16" cy="21" fill="#f4e23b" r="9"/><path d="m30 10.089-3.5-5.294-3.5 5.294h1.5v4.706h4v-4.706z" fill="#5ed15e"/><path d="m9 10.089-3.5-5.294-3.5 5.294h1.5v4.706h4v-4.706z" fill="#5ed15e"/><path d="m19.5 7.294-3.5-5.294-3.5 5.294h1.5v2.706h4v-2.706z" fill="#5ed15e"/><g fill="#1e1e1e"><path d="m19.3 17.288c0-.276-.224-.5-.5-.5h-5.6c-.276 0-.5.224-.5.5s.224.5.5.5h1.598c.541 0 1.005.332 1.202.803h-2.8c-.276 0-.5.224-.5.5s.224.5.5.5h2.8c-.197.471-.661.803-1.202.803h-1.598c-.276 0-.5.224-.5.5s.224.5.5.5h1.398l3.858 3.681c.097.092.221.138.345.138.132 0 .264-.052.361-.155.191-.2.184-.516-.017-.707l-3.347-3.195c.623-.303 1.091-.873 1.245-1.566h1.757c.276 0 .5-.224.5-.5s-.224-.5-.5-.5h-1.757c-.065-.292-.184-.564-.349-.803h2.106c.276.001.5-.223.5-.499z"/><path d="m16 13.852c-3.942 0-7.148 3.207-7.148 7.148s3.207 7.148 7.148 7.148 7.148-3.207 7.148-7.148-3.207-7.148-7.148-7.148zm0 13.296c-3.39 0-6.148-2.758-6.148-6.148s2.758-6.148 6.148-6.148c3.391 0 6.148 2.758 6.148 6.148s-2.757 6.148-6.148 6.148z"/><path d="m25.5 21c0-5.238-4.262-9.5-9.5-9.5s-9.5 4.262-9.5 9.5 4.262 9.5 9.5 9.5 9.5-4.262 9.5-9.5zm-9.5 8.5c-4.687 0-8.5-3.813-8.5-8.5s3.813-8.5 8.5-8.5 8.5 3.813 8.5 8.5-3.813 8.5-8.5 8.5z"/><path d="m26.917 4.52c-.092-.141-.249-.225-.417-.225s-.325.084-.417.225l-3.5 5.294c-.102.153-.11.35-.023.512s.256.264.44.264h1v4.206c0 .276.224.5.5.5h4c.276 0 .5-.224.5-.5v-4.206h1c.184 0 .353-.102.44-.264s.078-.358-.023-.512zm1.583 5.069c-.276 0-.5.224-.5.5v4.206h-3v-4.206c0-.276-.224-.5-.5-.5h-.57l2.57-3.888 2.57 3.888z"/><path d="m2 10.589h1v4.206c0 .276.224.5.5.5h4c.276 0 .5-.224.5-.5v-4.206h1c.184 0 .353-.102.44-.264s.078-.358-.023-.512l-3.5-5.294c-.092-.14-.249-.224-.417-.224s-.325.084-.417.225l-3.5 5.294c-.102.153-.11.35-.023.512.087.161.256.263.44.263zm3.5-4.888 2.57 3.888h-.57c-.276 0-.5.224-.5.5v4.206h-3v-4.206c0-.276-.224-.5-.5-.5h-.57z"/><path d="m16.417 1.725c-.092-.141-.249-.225-.417-.225s-.325.084-.417.225l-3.5 5.294c-.102.153-.11.35-.023.512s.256.264.44.264h1v2.205c0 .276.224.5.5.5h4c.276 0 .5-.224.5-.5v-2.206h1c.184 0 .353-.102.44-.264s.078-.358-.023-.512zm1.583 5.069c-.276 0-.5.224-.5.5v2.206h-3v-2.206c0-.276-.224-.5-.5-.5h-.57l2.57-3.888 2.57 3.888z"/></g></svg>