<svg id="Layer_1" enable-background="new 0 0 66 66" height="512" viewBox="0 0 66 66" width="512" xmlns="http://www.w3.org/2000/svg"><g><g><g><path d="m44.59 18.2c-.92 0-1.66-.76-1.63-1.68.03-.89.81-1.58 1.7-1.58h6.24c.32 0 .54-.31.43-.61-.59-1.64-.51-4.72-.36-6.5.09-1.04.97-1.85 2.01-1.85 1.12 0 2.02.91 2.02 2.02 0 1.77.52 3.93 1.52 5.39 1.21 1.76 2.55 3.19 2.55 3.19l2.13 1.86v8.76h-1.11c-.78 0-1.54.15-2.28.4-.77.26-1.57.39-2.38.39h-8.93c-.9 0-1.63-.73-1.63-1.63 0-.9.73-1.63 1.63-1.63h-1.2c-.89 0-1.67-.69-1.7-1.58-.03-.92.71-1.68 1.63-1.68h-.64c-.9 0-1.63-.73-1.63-1.63 0-.91.73-1.64 1.63-1.64z" fill="#8aba55"/></g><g><path d="m63.96 16.77h-1.79c-.54 0-.97.43-.97.97v10.18c0 .54.43.97.97.97h1.79" fill="#4e6575"/></g><g><path d="m34.08 27.68c0 .76-.06 1.48-.21 2.2-1.02 6.14-6.35 10.81-12.8 10.81-7.17 0-12.97-5.8-12.97-13.01v-10.9c.32.04.64.06.97.06 2.9 0 5.5-1.21 7.34-3.15.59-.59 1.08-1.25 1.48-1.95 2.2 4.15 6.58 7 11.63 7 1.61 0 3.15-.28 4.57-.83v9.77z" fill="#ffab03"/></g><g><path d="m40.12 64.02v-11.61c0-5.63-4.56-10.19-10.19-10.19h-3.09v.8c0 3.2-2.58 5.77-5.77 5.77-3.18 0-5.75-2.58-5.75-5.77v-.8h-3.09c-5.63 0-10.19 4.56-10.19 10.19v11.62z" fill="#7cb5e8"/></g><g><path d="m15.32 39.34v3.68c0 3.19 2.58 5.77 5.75 5.77 3.19 0 5.77-2.57 5.77-5.77v-3.68c-1.74.86-3.7 1.35-5.78 1.35-2.06 0-4.01-.49-5.74-1.35z" fill="#ffab03"/></g><g><path d="m37.32 7.99c-.66-1.02-1.52-1.9-2.47-2.66l-.81-.65c-1.79-1.44-3.93-2.46-6.21-2.66-.34-.03-.68-.04-1.02-.04h-7.69c-4.19 0-7.65 3.81-7.65 8.54v-2.35c-5.01 0-9.05 4.51-9.05 10.1 0 4.1 2.3 7.67 5.68 9.48 0-.01 0-.02 0-.03s0-.02 0-.03v-10.9c.32.04.64.06.97.06 2.9 0 5.5-1.21 7.34-3.15.59-.59 1.08-1.25 1.48-1.95 2.2 4.15 6.58 7 11.63 7 1.61 0 3.15-.28 4.57-.83v9.79.06c3.37-1.81 5.67-5.38 5.67-9.47v-1.86c-.02-3.17-.91-6.08-2.44-8.45z" fill="#4e6575"/></g><g opacity=".3"><path d="m15.42 39.38c1.55 3.67 5.18 6.25 9.41 6.25.49 0 .97-.05 1.44-.11.36-.76.57-1.6.57-2.5v-3.68c-1.74.86-3.7 1.35-5.78 1.35-2.02 0-3.93-.48-5.64-1.31z" fill="#fff"/></g><g opacity=".3"><path d="m37.32 7.99c-.66-1.02-1.52-1.9-2.47-2.66l-.81-.65c-1.79-1.44-3.93-2.46-6.21-2.66-.34-.03-.68-.04-1.02-.04h-7.69c-.15 0-.3.02-.44.03.54 7.19 6.53 12.86 13.86 12.86 2.49 0 4.83-.67 6.85-1.81-.4-1.86-1.11-3.57-2.07-5.07z" fill="#e2e2e2"/></g><g opacity=".3"><path d="m29.93 42.22h-3.09v.8c0 2.19-1.21 4.09-3.01 5.07v5.98c0 2.21 1.79 4 4 4h12.28v-5.65c.01-5.64-4.55-10.2-10.18-10.2z" fill="#fff"/></g><g><path d="m62.69 46.98c0 1.09-2.37 1.9-2.6 2.91-.24 1.05 1.54 2.81 1.08 3.75-.47.96-2.95.66-3.61 1.49s.18 3.19-.65 3.85-2.94-.68-3.9-.22c-.95.46-1.21 2.95-2.26 3.19-1.02.23-2.33-1.89-3.42-1.89s-2.4 2.13-3.42 1.89c-1.05-.24-1.31-2.73-2.26-3.19-.96-.47-3.07.88-3.9.22s.01-3.02-.65-3.85-3.15-.53-3.61-1.49c-.46-.95 1.32-2.7 1.08-3.75-.23-1.02-2.6-1.83-2.6-2.91 0-1.09 2.37-1.9 2.6-2.91.24-1.05-1.54-2.81-1.08-3.75.47-.96 2.95-.66 3.61-1.49s-.18-3.19.65-3.85 2.94.68 3.9.22c.95-.46 1.21-2.95 2.26-3.19 1.02-.23 2.33 1.89 3.42 1.89s2.4-2.13 3.42-1.89c1.05.24 1.31 2.73 2.26 3.19.96.47 3.07-.88 3.9-.22s-.01 3.02.65 3.85 3.15.53 3.61 1.49c.46.95-1.32 2.7-1.08 3.75.23 1.01 2.6 1.82 2.6 2.91z" fill="#ef4a51"/></g><g opacity=".3"><path d="m56.52 13.4c-1-1.46-1.52-3.63-1.52-5.4 0-1.12-.9-2.03-2.02-2.03-1.05 0-1.93.8-2.01 1.85-.15 1.78-.23 4.85.36 6.5.11.3-.11.61-.43.61h-2.42c1.69 4.61 6.1 7.9 11.3 7.9.48 0 .96-.04 1.43-.09v-4.3l-2.13-1.86c-.01.01-1.35-1.42-2.56-3.18z" fill="#fff"/></g><g opacity=".3"><path d="m60.08 44.06c-.24-1.05 1.54-2.81 1.08-3.75-.47-.96-2.95-.66-3.61-1.49s.18-3.19-.65-3.85-2.94.68-3.9.22c-.95-.46-1.21-2.95-2.26-3.19-1.02-.23-2.33 1.89-3.42 1.89s-2.4-2.13-3.42-1.89c-1.05.24-1.31 2.73-2.26 3.19-.25.12-.57.12-.93.06-.59 1.61-.93 3.34-.93 5.16 0 8.31 6.74 15.05 15.05 15.05.92 0 1.81-.1 2.69-.25.01-.02.02-.05.03-.06.66-.83 3.15-.53 3.61-1.49.46-.95-1.32-2.7-1.08-3.75.23-1.02 2.6-1.83 2.6-2.91.01-1.11-2.36-1.92-2.6-2.94z" fill="#fff"/></g><g><circle cx="47.32" cy="46.98" fill="#e2e2e2" r="9"/></g><g opacity=".3"><path d="m47.32 37.98c-1.2 0-2.33.24-3.38.66-.42 1.04-.66 2.18-.66 3.38 0 4.97 4.03 9 9 9 1.2 0 2.33-.24 3.38-.66.42-1.04.66-2.18.66-3.38 0-4.97-4.03-9-9-9z" fill="#fff"/></g><g opacity=".5"><path d="m56.23 45.78c-.12-.78-.32-1.72-.73-2.55-1.42-2.85-3.97-4.86-7.28-5.2-.03 0-.06-.01-.09-.01-1.58-.15-2.25 2.12-.81 2.78.26.12.54.2.83.24 2.61.36 4.7 2.44 5.09 5.04.02.15.05.29.1.43.52 1.68 3.16 1.01 2.89-.73z" fill="#fff"/></g></g><g><g><g><path d="m20.96 33.99c-1.16 0-2.32-.36-3.45-1.07-.47-.29-.61-.91-.31-1.38s.91-.61 1.38-.31c1.62 1.02 3.14 1.02 4.77 0 .47-.29 1.08-.15 1.38.31s.15 1.08-.31 1.38c-1.14.72-2.3 1.07-3.46 1.07z"/></g><g><circle cx="16.89" cy="24.17" r="1.39"/></g><g><circle cx="25.03" cy="24.17" r="1.39"/></g></g><g><g><g><path d="m55.43 28.75h-8.93c-1.31 0-2.38-1.07-2.38-2.38 0-.38.09-.74.25-1.06-.87-.35-1.49-1.17-1.52-2.13-.01-.5.12-.98.39-1.38-.62-.43-1.03-1.15-1.03-1.96 0-.63.25-1.21.65-1.63-.44-.46-.67-1.07-.65-1.71.04-1.27 1.14-2.31 2.45-2.31h5.84c-.58-2.08-.36-5.4-.28-6.42.12-1.42 1.33-2.53 2.76-2.53 1.53 0 2.77 1.24 2.77 2.77 0 1.79.54 3.74 1.39 4.97 1.16 1.69 2.46 3.09 2.48 3.1l2.08 1.8c.16.14.26.35.26.57v8.76c0 .41-.34.75-.75.75h-1.11c-.64 0-1.33.12-2.04.36-.86.28-1.74.43-2.63.43zm-8.18-4.02c0 .41-.34.75-.75.75-.49 0-.88.4-.88.88s.4.88.88.88h8.94c.73 0 1.45-.12 2.14-.35.87-.29 1.71-.44 2.52-.44h.36v-7.67l-1.87-1.63c-.11-.11-1.45-1.54-2.67-3.33-1.22-1.77-1.65-4.17-1.65-5.82 0-.7-.57-1.27-1.27-1.27-.66 0-1.21.51-1.27 1.16-.17 1.98-.18 4.79.32 6.18.13.37.08.78-.15 1.1s-.59.51-.99.51h-6.24c-.51 0-.94.38-.95.85-.01.24.08.47.25.64s.39.27.63.27c.41 0 .75.34.75.75s-.34.75-.75.75c-.49 0-.88.4-.88.88s.4.88.88.88h.63c.41 0 .75.34.75.75s-.34.75-.75.75c-.24 0-.47.1-.63.27-.17.17-.26.4-.25.64.01.47.44.86.95.86h1.2c.41.01.75.34.75.76z"/></g><g><path d="m63.96 29.64h-1.79c-.95 0-1.72-.77-1.72-1.72v-10.18c0-.95.77-1.72 1.72-1.72h1.79c.41 0 .75.34.75.75s-.34.75-.75.75h-1.79c-.12 0-.22.1-.22.22v10.18c0 .12.1.22.22.22h1.79c.41 0 .75.34.75.75s-.34.75-.75.75z"/></g></g><g><path d="m21.07 41.44c-7.57 0-13.72-6.17-13.72-13.76v-10.9c0-.21.09-.42.25-.56s.37-.21.59-.19c.29.03.59.05.88.05 2.59 0 5.01-1.04 6.8-2.92.53-.53.99-1.14 1.37-1.81.14-.24.35-.38.66-.38.27 0 .52.16.65.4 2.16 4.07 6.36 6.6 10.96 6.6 1.51 0 2.96-.26 4.3-.78.23-.09.49-.06.69.08s.33.37.33.62v9.79c0 .88-.07 1.63-.22 2.35-1.11 6.6-6.8 11.41-13.54 11.41zm-12.23-23.86v10.1c0 6.76 5.48 12.26 12.22 12.26 6.01 0 11.08-4.28 12.06-10.18.14-.65.2-1.3.2-2.08v-8.74c-1.22.36-2.5.54-3.82.54-4.75 0-9.11-2.4-11.66-6.33-.28.38-.59.73-.92 1.06-2.1 2.22-4.98 3.44-8.08 3.37z"/></g><g><path d="m26.84 43.76c-.41 0-.75-.34-.75-.75v-3.68c0-.41.34-.75.75-.75s.75.34.75.75v3.68c0 .42-.33.75-.75.75z"/></g><g><path d="m15.32 43.76c-.41 0-.75-.34-.75-.75v-3.68c0-.41.34-.75.75-.75s.75.34.75.75v3.68c0 .42-.34.75-.75.75z"/></g><g><path d="m34.07 28.49c-.13 0-.27-.04-.38-.11-.23-.14-.37-.38-.37-.64v-8.8c-1.22.36-2.5.54-3.82.54-4.75 0-9.11-2.4-11.66-6.33-.28.38-.59.73-.92 1.06-2.11 2.22-4.99 3.44-8.09 3.37v10.1c0 .26-.14.54-.36.68-.23.14-.51.17-.74.05-3.73-2.01-6.06-5.9-6.06-10.14 0-5.88 4.25-10.68 9.53-10.84 1.15-3.61 4.27-6.2 7.92-6.2h7.69c.36 0 .73.02 1.08.05 2.29.2 4.58 1.17 6.62 2.82.32.26.37.73.11 1.05s-.73.37-1.05.11c-1.81-1.46-3.82-2.32-5.81-2.49-.32-.03-.63-.04-.95-.04h-7.69c-3.81 0-6.9 3.49-6.9 7.79 0 .41-.34.75-.75.75s-.75-.34-.75-.75v-1.56c-4.23.43-7.55 4.44-7.55 9.31 0 3.25 1.57 6.27 4.18 8.13v-9.62c0-.21.09-.42.25-.56s.37-.21.59-.19c.29.03.59.05.88.05 2.59 0 5.01-1.04 6.8-2.92.53-.53.99-1.14 1.37-1.81.13-.24.35-.38.66-.38.27 0 .52.16.65.4 2.16 4.07 6.36 6.6 10.96 6.6 1.51 0 2.96-.26 4.3-.78.23-.09.49-.06.69.08s.33.37.33.62v8.5c2.6-1.87 4.17-4.87 4.17-8.12v-1.86c0-2.9-.8-5.67-2.31-8.01-.22-.35-.12-.81.22-1.04.35-.23.81-.12 1.04.22 1.67 2.58 2.54 5.64 2.54 8.82v1.86c0 4.24-2.32 8.12-6.06 10.14-.11.06-.23.09-.36.09z"/></g><g><path d="m50.57 62.73c-.76 0-1.43-.57-2.08-1.12-.37-.31-.93-.79-1.17-.79s-.8.48-1.17.79c-.74.63-1.52 1.29-2.41 1.08-.92-.21-1.36-1.2-1.74-2.07-.18-.4-.48-1.08-.68-1.18-.21-.1-.94.09-1.37.2-.91.24-1.94.51-2.67-.08-.73-.58-.7-1.65-.67-2.6.01-.45.04-1.2-.1-1.37-.14-.18-.87-.32-1.31-.4-.93-.18-1.98-.38-2.39-1.23-.4-.84.09-1.78.52-2.61.21-.4.56-1.07.51-1.31-.05-.21-.63-.65-.99-.91-.77-.57-1.63-1.22-1.63-2.17s.87-1.6 1.63-2.17c.35-.26.94-.7.99-.91.05-.23-.3-.9-.51-1.3-.43-.83-.92-1.77-.52-2.61.41-.85 1.46-1.05 2.39-1.23.44-.08 1.17-.23 1.31-.4.14-.18.12-.93.1-1.38-.03-.94-.06-2.01.67-2.6.73-.58 1.76-.31 2.67-.08.43.11 1.16.3 1.37.2.2-.1.5-.77.67-1.18.38-.87.82-1.86 1.74-2.07.88-.2 1.67.45 2.41 1.08.37.31.93.79 1.17.79s.8-.48 1.17-.79c.75-.63 1.52-1.29 2.41-1.08.92.21 1.36 1.2 1.74 2.07.18.4.48 1.08.68 1.18.21.1.94-.09 1.37-.2.91-.24 1.94-.51 2.67.08.73.58.7 1.65.67 2.6-.01.45-.04 1.2.1 1.38s.87.32 1.31.4c.93.18 1.98.38 2.39 1.23.4.84-.09 1.78-.52 2.61-.21.4-.56 1.07-.51 1.3.05.21.64.65.99.91.77.57 1.63 1.22 1.63 2.17s-.87 1.6-1.63 2.17c-.35.26-.94.7-.99.91-.05.23.3.9.51 1.31.43.83.92 1.77.52 2.61-.41.85-1.46 1.05-2.39 1.23-.44.08-1.17.23-1.31.4-.14.18-.12.93-.1 1.37.03.94.06 2.01-.67 2.6-.73.58-1.76.31-2.67.07-.43-.11-1.16-.3-1.37-.2-.2.1-.5.77-.68 1.18-.38.87-.82 1.86-1.74 2.07-.1.04-.21.05-.32.05zm-9.44-4.81c.3 0 .58.05.84.18.7.34 1.05 1.14 1.4 1.92.17.37.51 1.15.71 1.21.2 0 .79-.5 1.1-.76.66-.56 1.35-1.15 2.15-1.15s1.48.58 2.15 1.15c.31.27.9.76 1.11.76.19-.06.53-.84.7-1.21.34-.78.7-1.59 1.4-1.92.7-.34 1.57-.12 2.4.1.41.11 1.18.31 1.36.2.14-.15.11-.95.1-1.37-.03-.86-.06-1.75.43-2.36s1.35-.78 2.2-.94c.39-.08 1.22-.24 1.33-.41.06-.19-.31-.89-.5-1.26-.4-.77-.81-1.56-.64-2.33.17-.75.87-1.27 1.55-1.78.31-.23 1.03-.77 1.03-.97h.75-.75c0-.2-.72-.74-1.03-.97-.68-.51-1.38-1.03-1.55-1.78-.17-.77.24-1.56.64-2.33.19-.37.56-1.07.5-1.27-.11-.17-.93-.33-1.32-.41-.84-.16-1.71-.33-2.2-.94s-.46-1.5-.43-2.36c.01-.43.04-1.23-.11-1.38-.18-.1-.94.1-1.35.21-.83.22-1.7.44-2.4.1-.69-.34-1.05-1.14-1.4-1.92-.16-.37-.51-1.15-.71-1.21-.2 0-.79.5-1.1.76-.66.56-1.35 1.15-2.15 1.15s-1.48-.58-2.15-1.15c-.32-.27-.88-.75-1.11-.76-.19.06-.53.84-.7 1.21-.34.78-.7 1.59-1.4 1.92-.7.34-1.57.12-2.4-.1-.41-.11-1.18-.31-1.36-.2-.14.15-.11.94-.1 1.37.03.86.06 1.75-.43 2.36-.48.61-1.35.77-2.2.94-.39.08-1.21.24-1.33.41-.06.19.31.89.5 1.26.4.77.81 1.56.64 2.33-.17.75-.87 1.27-1.55 1.78-.31.23-1.03.77-1.03.97s.72.74 1.03.97c.68.51 1.38 1.03 1.55 1.78.17.77-.24 1.56-.64 2.33-.19.37-.56 1.07-.5 1.27.11.17.93.33 1.33.41.84.16 1.71.33 2.2.94s.46 1.5.43 2.36c-.01.43-.04 1.23.11 1.38.18.1.94-.1 1.35-.21.51-.14 1.05-.28 1.55-.28z"/></g><g><path d="m47.32 56.73c-5.38 0-9.75-4.37-9.75-9.75s4.37-9.75 9.75-9.75 9.75 4.37 9.75 9.75c0 4.32-2.77 8.06-6.89 9.33-.4.12-.82-.1-.94-.5s.1-.82.5-.94c3.49-1.07 5.83-4.24 5.83-7.89 0-4.55-3.7-8.25-8.25-8.25s-8.25 3.7-8.25 8.25 3.7 8.25 8.25 8.25c.41 0 .75.34.75.75s-.33.75-.75.75z"/></g><g><path d="m45.37 50.73c-.19 0-.38-.07-.53-.22l-2.1-2.1c-.29-.29-.29-.77 0-1.06s.77-.29 1.06 0l1.57 1.57 5.47-5.47c.29-.29.77-.29 1.06 0s.29.77 0 1.06l-6 6c-.14.15-.33.22-.53.22z"/></g><g><path d="m40.12 64.77h-38.08c-.41 0-.75-.34-.75-.75v-11.61c0-6.03 4.91-10.94 10.94-10.94h3.09c.41 0 .75.34.75.75v.8c0 2.77 2.24 5.02 5 5.02 2.77 0 5.02-2.25 5.02-5.02v-.8c0-.41.34-.75.75-.75h3.09c.27 0 .54.02.81.04.41.03.73.39.7.8s-.38.72-.8.69h-.02c-.23-.02-.46-.04-.7-.04l-2.34.05c0 3.6-2.92 6.52-6.52 6.52-3.58 0-6.5-2.93-6.5-6.52v-.05h-2.34c-5.2 0-9.44 4.23-9.44 9.44v10.87h36.58v-1.23c-.04-.3.1-.61.38-.77.37-.2.82-.06 1.02.3.02.04.05.1.06.14.03.08.04.16.04.24v2.07c.01.42-.33.75-.74.75z"/></g></g></g></g></svg>