<svg id="Layer_1" height="300" viewBox="0 0 64 64" width="300" xmlns="http://www.w3.org/2000/svg" data-name="Layer 1" version="1.1" xmlns:xlink="http://www.w3.org/1999/xlink" xmlns:svgjs="http://svgjs.dev/svgjs"><g width="100%" height="100%" transform="matrix(1,0,0,1,0,0)"><path d="m48 64h-9a1 1 0 0 1 0-2h9a3 3 0 0 0 3-3v-54a3 3 0 0 0 -3-3h-32a3 3 0 0 0 -3 3v54a3 3 0 0 0 3 3h9a1 1 0 0 1 0 2h-9a5.006 5.006 0 0 1 -5-5v-54a5.006 5.006 0 0 1 5-5h32a5.006 5.006 0 0 1 5 5v54a5.006 5.006 0 0 1 -5 5z" fill="#1150a0" fill-opacity="1" data-original-color="#000000ff" stroke="none" stroke-opacity="1"/><path d="m48 58h-9a1 1 0 0 1 0-2h8v-48h-30v48h8a1 1 0 0 1 0 2h-9a1 1 0 0 1 -1-1v-50a1 1 0 0 1 1-1h32a1 1 0 0 1 1 1v50a1 1 0 0 1 -1 1z" fill="#1150a0" fill-opacity="1" data-original-color="#000000ff" stroke="none" stroke-opacity="1"/><path d="m34 5h-4a1 1 0 0 1 0-2h4a1 1 0 0 1 0 2z" fill="#1150a0" fill-opacity="1" data-original-color="#000000ff" stroke="none" stroke-opacity="1"/><path d="m36 51h-8a1 1 0 0 1 0-2h8a1 1 0 0 1 0 2z" fill="#1150a0" fill-opacity="1" data-original-color="#000000ff" stroke="none" stroke-opacity="1"/><path d="m30 37a1 1 0 0 1 -.707-.293l-3-3a1 1 0 0 1 1.414-1.414l2.293 2.293 6.293-6.293a1 1 0 0 1 1.414 1.414l-7 7a1 1 0 0 1 -.707.293z" fill="#1150a0" fill-opacity="1" data-original-color="#000000ff" stroke="none" stroke-opacity="1"/><path d="m41 42a1 1 0 0 1 -1-1v-17h-16v17a1 1 0 0 1 -2 0v-18a1 1 0 0 1 1-1h18a1 1 0 0 1 1 1v18a1 1 0 0 1 -1 1z" fill="#1150a0" fill-opacity="1" data-original-color="#000000ff" stroke="none" stroke-opacity="1"/><path d="m39 64a1 1 0 0 1 -1-1v-18a6 6 0 0 0 -12 0v18a1 1 0 0 1 -2 0v-18a8 8 0 0 1 16 0v18a1 1 0 0 1 -1 1z" fill="#1150a0" fill-opacity="1" data-original-color="#000000ff" stroke="none" stroke-opacity="1"/><path d="m36 51h-8a1 1 0 0 1 -1-1v-5a5 5 0 0 1 10 0v5a1 1 0 0 1 -1 1zm-7-2h6v-4a3 3 0 0 0 -6 0z" fill="#1150a0" fill-opacity="1" data-original-color="#000000ff" stroke="none" stroke-opacity="1"/><path d="m36 56h-8a1 1 0 0 1 0-2h8a1 1 0 0 1 0 2z" fill="#1150a0" fill-opacity="1" data-original-color="#000000ff" stroke="none" stroke-opacity="1"/><path d="m36 60h-8a1 1 0 0 1 0-2h8a1 1 0 0 1 0 2z" fill="#1150a0" fill-opacity="1" data-original-color="#000000ff" stroke="none" stroke-opacity="1"/></g></svg>