<?xml version="1.0" encoding="utf-8"?>
<!-- Generator: Adobe Illustrator 16.0.0, SVG Export Plug-In . SVG Version: 6.00 Build 0)  -->
<!DOCTYPE svg PUBLIC "-//W3C//DTD SVG 1.1//EN" "http://www.w3.org/Graphics/SVG/1.1/DTD/svg11.dtd">
<svg version="1.1" id="Layer_1" xmlns="http://www.w3.org/2000/svg" xmlns:xlink="http://www.w3.org/1999/xlink" x="0px" y="0px"
	 width="420px" height="340px" viewBox="0 0 420 340" style="enable-background:new 0 0 420 340;" xml:space="preserve">
<g>
	<path style="fill:#C8D5E9;" d="M394.61,289.05c0.03,7.82-60.46,14.51-88.25,16.67c-39.88,3.09-43.88-0.75-98,0
		c-68.21,0.94-84.9,7.36-130,0.67c-7.84-1.16-59.73-8.86-59.5-17.33c0.33-11.94,104.06-20.26,187.88-20
		C293.91,269.32,394.57,278.98,394.61,289.05z"/>
	<g>
		<g>
			<text transform="matrix(1 0 0 1 -125.1982 224.8105)" style="fill:#FFFFFF; font-family:'Rubik-Regular'; font-size:6.0616;">READ MORE</text>
		</g>
		<path style="fill:#E7ECF0;" d="M38.32,280.43c-49.34-53.63,50.01-99.84,22.14-152.47c-30.4-57.4-21.96-91.63,3.41-103.9
			c41.35-20,146.09,28.09,191.91,7c41.26-19,84.3-13.81,103.09,9.5c24.71,30.66-26.24,73.14-12.39,111.99
			c13.82,38.75,69.47,84.93,29.95,127.88H38.32z"/>
		<rect x="296.46" y="82.22" style="fill:#C8D5E9;" width="56.24" height="68.37"/>
		<rect x="298.55" y="84.32" style="fill:#879FD1;" width="52.04" height="64.18"/>
		<path style="fill:#FFFFFF;" d="M322.3,122.03c-0.42-0.42-0.21-1.15,0.36-1.31c0.98-0.27,2.55-0.6,3.97-0.39
			c2.28,0.33,3.81-4.23,8.18-1.57s3.07-0.48,8.01,1.57s-4.01,1.65-6.67,3.18s-5.71-2.29-7.23-0.95
			C327.63,123.7,323.88,123.6,322.3,122.03z"/>
		<path style="fill:#FFFFFF;" d="M306.17,94.17c0,0,1.84,0.57,4,0.32c2.16-0.25,1.71,0.13,4,0.06s5.46-0.19,5.71-0.89
			s-2.6-0.32-3.74-1.46c-1.14-1.14-2.47,0.89-5.01-0.25s-2.47,0.57-4.95,0.89C303.7,93.15,302.8,93.8,306.17,94.17z"/>
		<path style="fill:#F9B733;" d="M338.09,96.65c-1.59-0.84-3.33-0.52-6.57,1.45c-0.75,0.46-2.04,1.17-3.64,2.06l-2.26-0.17
			c0.2-0.31,0.23-0.71,0.04-1.05c-0.27-0.48-0.89-0.64-1.36-0.37l-2,1.16l-8.99-0.68c-0.13-0.01-0.26,0.03-0.36,0.1l-1.24,0.87
			l8.86,2.77l1.4,0.84c-2.26,1.4-4.62,2.96-6.76,4.62l-3.88-1.85c-0.38-0.18-0.82-0.15-1.17,0.07l-0.7,0.44l0.95,2.27l-1.33-0.09
			c-0.27-0.02-0.53,0.05-0.76,0.19l-1.62,1l4.37,1.63c-0.06,0.06-0.13,0.13-0.19,0.19c-0.36,0.38,0.01,1,0.51,0.86
			c0.34-0.09,0.74-0.2,1.2-0.34l3.38,3.38l0.92-0.47c0.53-0.27,0.81-0.88,0.66-1.46l-0.75-2.98c2.52-1.03,5.82-2.54,10.02-4.76
			l2.53,1.37l6.52,6.56l0.99-0.56c0.24-0.14,0.35-0.43,0.25-0.69l-2.29-5.86l1.11-0.64c0.48-0.27,0.64-0.89,0.37-1.36
			c-0.27-0.48-0.89-0.64-1.36-0.37l-0.84,0.49l-0.96-2.45C339.76,98.82,339.52,97.4,338.09,96.65z"/>
		<rect x="302.93" y="130.49" style="fill:#2E3E8B;" width="33.36" height="3.07"/>
		<rect x="302.93" y="134.68" style="fill:#2E3E8B;" width="42.6" height="2.26"/>
		<rect x="302.93" y="137.9" style="fill:#2E3E8B;" width="42.6" height="2.26"/>
		<rect x="302.93" y="141.12" style="fill:#2E3E8B;" width="42.6" height="2.26"/>
		<g>
			<path style="fill:#C8D5E9;" d="M43.69,274.51c0,0,83.33-0.11,166.67-0.21c83.33,0.11,166.67,0.21,166.67,0.21
				s-83.33,0.11-166.67,0.21C127.03,274.62,43.69,274.51,43.69,274.51z"/>
		</g>
		<rect x="73.89" y="47.72" style="fill:#FFFFFF;" width="38.71" height="75.47"/>
		<rect x="119.85" y="47.72" style="fill:#FFFFFF;" width="38.71" height="75.47"/>
		<rect x="73.89" y="130.4" style="fill:#FFFFFF;" width="38.71" height="75.47"/>
		<rect x="119.85" y="130.4" style="fill:#FFFFFF;" width="38.71" height="75.47"/>
	</g>
	<g>
		<path style="fill:#2E3E8B;" d="M162.13,292.53h-2.46c0-3.87-3.15-7.01-7.01-7.01h-16.23c-3.87,0-7.01,3.14-7.01,7.01h-2.46
			c0-5.22,4.25-9.47,9.47-9.47h16.23C157.88,283.06,162.13,287.31,162.13,292.53z"/>
		<rect x="142.53" y="256.75" style="fill:#2E3E8B;" width="4.01" height="27.54"/>
		<circle style="fill:#1B2E37;" cx="127.84" cy="292.53" r="2.93"/>
		<circle style="fill:#1B2E37;" cx="160.9" cy="292.53" r="2.93"/>
		<path style="fill:#2E3E8B;" d="M142.76,283.06c5.22,0,9.47,4.25,9.47,9.47h-2.46c0-3.87-3.14-7.01-7.01-7.01"/>
		<circle style="fill:#1B2E37;" cx="151" cy="292.53" r="2.93"/>
		<path style="fill:#879FD1;" d="M300.44,191.47c0,0,8.41,31.8,3.69,49.76c-4.53,2.02-36.42-1.92-36.42-1.92l-0.91-45.44
			L300.44,191.47z"/>
		<path style="fill:#1B2E37;" d="M277.34,125.11c-2.04-1.37-1.06-3.61-1.06-3.61c-0.98-1.45,0.68-3.87,0.68-3.87
			c-1.49-1.68,0.84-3.47,1.67-3.82c-0.8-2.85,1.92-3.43,2.64-2.86c-0.01-1.84,2.93-3.23,4.77-1.33c1.26-1.96,5.34-1.42,5.51,0
			c1.88-1.31,4.73,0.55,4.33,2.31c2.04,0.07,3.75,2.16,2.61,3.73c2.37,1.25,2.12,3.98,1.14,4.46c1.71,1.45,0.33,3.93-0.65,4.34
			c1.31,2.65-1.12,4.95-2.43,4.99c1.29,2.65-5.49,2.88-5.49,2.88C288.77,129.85,277.34,128.16,277.34,125.11z"/>
		<path style="fill:#6F5850;" d="M264.74,241.25c0.05-2.58,1.43-11.15,1.43-11.15l12.18,1.56l-2.53,12.06l-1.17,40.48
			c-2.89-0.02-3.09,0.09-5.97,0.08C268.62,283.75,264.68,243.9,264.74,241.25z"/>
		<path style="fill:#6F5850;" d="M298.38,231.65l0.05,11.36l-1.43,39.95c-2.94-0.08-2.78,0.06-5.72,0
			c-0.08-0.81-4.62-39.14-4.82-41.74c-0.2-2.58-0.39-11.13-0.39-11.13L298.38,231.65z"/>
		<g>
			<path style="fill:#FFFFFF;" d="M275.65,284.19l-0.01,2.4h-6.73c0,0-0.09-0.85-0.25-2.32
				C270.99,284.35,273.32,284.3,275.65,284.19z"/>
			<path style="fill:#FFFFFF;" d="M297.66,282.98l-0.08,3.96l-6.71-0.42c0,0-0.13-1.27-0.34-3.37
				C292.93,283,295.3,282.93,297.66,282.98z"/>
			<path style="fill:#6F5850;" d="M272.3,158.31c-2.86,9.09-11.95,24.42-16.76,18.85c-4.63-5.35,7.55-21.79,7.55-21.79L272.3,158.31
				z"/>
			<path style="fill:#2E3E8B;" d="M267.93,193.84l-3.78,42.06c4.57,0.67,10.26,1.39,14.92,1.81l6.91-41.47L267.93,193.84z"/>
			<path style="fill:#2E3E8B;" d="M299.43,238.06v-41.82h-19.56v13.19h2.68l1.79,28.67C289.37,238.38,294.42,238.41,299.43,238.06z"
				/>
			<g>
				<path style="fill:#1B2E37;" d="M282.76,215.27c-0.12-1-0.26-1.99-0.35-2.99l0.08,0.11c-0.91-0.36-1.81-0.74-2.7-1.13l-0.1-0.04
					l-0.01-0.11c-0.18-1.66-0.32-3.32-0.46-4.98c-0.07-0.83-0.11-1.66-0.17-2.49c-0.05-0.83-0.07-1.67-0.11-2.5
					c0.12,0.83,0.25,1.65,0.35,2.48c0.1,0.83,0.21,1.65,0.29,2.48c0.17,1.66,0.35,3.32,0.47,4.98l-0.11-0.16
					c0.89,0.4,1.77,0.81,2.65,1.24l0.08,0.04l0,0.08C282.74,213.26,282.74,214.27,282.76,215.27z"/>
			</g>
			<g>
				<path style="fill:#1B2E37;" d="M292.07,196.88c0,0-0.19,0.79-0.33,1.98c-0.08,0.59-0.11,1.29-0.1,2.03
					c0.03,0.37,0.03,0.75,0.11,1.13c0.04,0.39,0.17,0.75,0.3,1.12c0.04,0.19,0.16,0.34,0.24,0.52c0.09,0.17,0.16,0.35,0.29,0.48
					l0.36,0.43c0.13,0.13,0.29,0.22,0.43,0.33c0.27,0.24,0.6,0.36,0.91,0.5c0.3,0.16,0.62,0.19,0.91,0.26
					c0.29,0.05,0.56,0.14,0.8,0.13c0.24,0.01,0.46,0.02,0.63,0.03c0.35,0.02,0.55,0.03,0.55,0.03s-0.2,0.02-0.55,0.05
					c-0.18,0.01-0.39,0.03-0.64,0.05c-0.25,0.04-0.53-0.01-0.83-0.05c-0.3-0.04-0.64-0.05-0.97-0.2c-0.34-0.12-0.71-0.22-1.02-0.48
					c-0.16-0.12-0.34-0.22-0.48-0.36l-0.41-0.47c-0.15-0.15-0.24-0.34-0.34-0.52c-0.09-0.19-0.22-0.36-0.28-0.57
					c-0.12-0.4-0.25-0.8-0.29-1.21c-0.08-0.4-0.07-0.8-0.09-1.19c0-0.77,0.11-1.48,0.23-2.07
					C291.75,197.62,292.07,196.88,292.07,196.88z"/>
			</g>
			<g>
				<path style="fill:#1B2E37;" d="M297.17,195.63c0,0,0.04,2.67,0.1,6.67c0.01,2,0.03,4.34,0.04,6.84c0,2.5,0,5.17,0,7.84
					c-0.02,2.67-0.04,5.34-0.05,7.84c-0.03,2.5-0.06,4.84-0.09,6.84c-0.08,4-0.14,6.67-0.14,6.67s-0.04-2.67-0.1-6.67
					c-0.01-2-0.03-4.34-0.04-6.84c0-2.5,0-5.17,0-7.84c0.02-2.67,0.04-5.34,0.05-7.84c0.03-2.5,0.06-4.84,0.09-6.84
					C297.11,198.29,297.17,195.63,297.17,195.63z"/>
			</g>
			<g>
				<path style="fill:#1B2E37;" d="M272.3,195.95c0,0,0.04,0.67-0.06,1.66c-0.05,0.5-0.13,1.08-0.27,1.69
					c-0.14,0.61-0.33,1.26-0.59,1.88c-0.15,0.3-0.28,0.62-0.47,0.9l-0.26,0.42c-0.11,0.13-0.21,0.25-0.31,0.38
					c-0.18,0.26-0.46,0.44-0.69,0.63c-0.23,0.18-0.51,0.27-0.74,0.39c-0.24,0.09-0.48,0.1-0.68,0.14c-0.2,0.06-0.39-0.01-0.53-0.01
					c-0.29-0.03-0.46-0.05-0.46-0.05s0.17-0.01,0.45-0.04c0.14-0.02,0.32,0.02,0.5-0.07c0.19-0.07,0.4-0.11,0.62-0.21
					c0.2-0.13,0.44-0.23,0.64-0.42c0.19-0.19,0.42-0.37,0.59-0.62c0.09-0.12,0.19-0.24,0.28-0.36l0.24-0.41
					c0.17-0.26,0.28-0.57,0.42-0.86c0.26-0.59,0.47-1.21,0.62-1.8c0.15-0.59,0.3-1.15,0.39-1.63
					C272.21,196.61,272.3,195.95,272.3,195.95z"/>
			</g>
			<path style="fill:#F5846E;" d="M264.6,147.51c3.82-8.14,15.27-8.84,15.27-8.84c0.2,4.39-2.43,13.52-5.66,23.09
				c-4.9-0.28-9.83-2.26-13.31-5.61C262.03,153.32,263.31,150.26,264.6,147.51z"/>
			<path style="fill:#F5846E;" d="M304.38,144.01c0,0-17.3-11.74-33.57-1.85c-2.47,38.3-2.88,54.52-2.88,54.52
				c17.09,5.61,31.51,0,31.51,0L304.38,144.01z"/>
			<g>
				<path style="fill:#1B2E37;" d="M293.28,139.27l0.05,0.58c0.02,0.1-0.03,0.19-0.04,0.29l-0.06,0.3c-0.04,0.2-0.15,0.37-0.22,0.56
					c-0.03,0.1-0.1,0.17-0.16,0.26l-0.18,0.25l0,0l-0.01,0.01c-0.54,0.38-1.11,0.72-1.71,1.01c-0.3,0.13-0.6,0.29-0.92,0.39
					c-0.32,0.1-0.63,0.23-0.95,0.29c-0.64,0.17-1.3,0.29-1.96,0.34c-0.66,0.07-1.33,0.05-2-0.05c-0.33-0.03-0.66-0.11-0.98-0.18
					c-0.33-0.06-0.64-0.2-0.96-0.29c-0.31-0.12-0.62-0.27-0.91-0.42c-0.28-0.19-0.58-0.34-0.83-0.56c-0.25-0.22-0.52-0.42-0.73-0.68
					c-0.23-0.24-0.45-0.5-0.61-0.79c-0.18-0.28-0.36-0.55-0.47-0.87c-0.13-0.32-0.12-0.66-0.07-0.98c-0.02,0.32,0,0.66,0.15,0.94
					c0.13,0.29,0.34,0.55,0.54,0.8c0.19,0.26,0.4,0.5,0.64,0.72c0.21,0.24,0.48,0.42,0.74,0.61c0.25,0.2,0.55,0.33,0.82,0.5
					c0.29,0.13,0.58,0.27,0.88,0.38c0.31,0.09,0.6,0.21,0.92,0.26c0.31,0.06,0.62,0.14,0.94,0.16c0.32,0.04,0.64,0.07,0.96,0.06
					c0.32,0.01,0.64,0.01,0.96-0.02c0.64-0.03,1.28-0.14,1.9-0.29c0.32-0.06,0.62-0.18,0.93-0.27c0.31-0.09,0.6-0.22,0.91-0.33
					c0.59-0.25,1.16-0.56,1.71-0.9l-0.02,0.01c0.11-0.15,0.26-0.27,0.35-0.44c0.08-0.17,0.2-0.33,0.25-0.51l0.08-0.27
					c0.02-0.09,0.07-0.18,0.06-0.28L293.28,139.27z"/>
			</g>
			<g>
				<path style="fill:#1B2E37;" d="M268.05,193.07c0,0,0.47,0.18,1.3,0.5c0.41,0.16,0.91,0.35,1.49,0.56
					c0.59,0.17,1.25,0.37,1.98,0.58c0.71,0.24,1.52,0.38,2.37,0.57c0.42,0.08,0.85,0.2,1.3,0.27c0.45,0.07,0.91,0.13,1.37,0.2
					c0.93,0.16,1.89,0.24,2.89,0.31c0.99,0.08,2,0.15,3,0.23c1,0.08,2.01,0.13,3,0.2c0.99,0.03,1.96,0.05,2.91,0.06
					c0.94-0.05,1.85-0.04,2.71-0.12c0.86-0.1,1.67-0.18,2.42-0.29c0.74-0.16,1.41-0.3,2.01-0.43c0.61-0.11,1.09-0.35,1.51-0.47
					c0.83-0.29,1.31-0.45,1.31-0.45s-0.47,0.19-1.29,0.52c-0.42,0.15-0.89,0.42-1.5,0.55c-0.6,0.15-1.27,0.33-2.01,0.52
					c-0.75,0.13-1.57,0.23-2.43,0.36c-0.87,0.1-1.79,0.12-2.74,0.18c-0.95,0.01-1.93-0.01-2.93-0.03c-0.99-0.06-2.01-0.09-3.01-0.17
					c-1.01-0.09-2.01-0.17-3-0.26c-0.98-0.08-1.97-0.17-2.91-0.34c-0.47-0.08-0.93-0.15-1.38-0.22c-0.45-0.08-0.88-0.21-1.3-0.31
					c-0.84-0.21-1.65-0.38-2.37-0.64c-0.72-0.24-1.38-0.47-1.96-0.66c-0.56-0.25-1.05-0.46-1.46-0.64
					C268.51,193.27,268.05,193.07,268.05,193.07z"/>
			</g>
			<path style="fill:#6F5850;" d="M292.23,132.06l-1.03,8.03c0,0-2.06,1.65-5.04,1.44c-2.99-0.21-4.84-2.06-4.84-2.06l1.24-10.3
				L292.23,132.06z"/>
			<path style="fill:#6F5850;" d="M279.6,124.73c-5.04-4.12-2.52,7.79,1.38,5.44"/>
			<path style="fill:#6F5850;" d="M286.12,115.06c4.95,0.2,8.94,3.54,7.39,12.29c-1.55,8.75-5.54,10.52-9.58,10.08
				c-4.04-0.44-5.9-2.83-5.79-9.75C278.25,120.76,277.73,114.72,286.12,115.06z"/>
			<path style="fill:#6F5850;" d="M293.01,126.16c5.04-4.12,2.52,7.79-1.39,5.44"/>
			<g>
				<g>
					<circle style="fill:#1B2E37;" cx="287.52" cy="127.06" r="0.78"/>
				</g>
			</g>
			<g>
				<g>
					<circle style="fill:#1B2E37;" cx="280.82" cy="126.39" r="0.78"/>
				</g>
			</g>
			<g>
				<path style="fill:#1B2E37;" d="M288.73,124.63c0,0-0.14-0.01-0.32-0.03c-0.09-0.02-0.2-0.02-0.3-0.05
					c-0.1-0.02-0.22-0.04-0.33-0.05c-0.11-0.01-0.22-0.05-0.32-0.04c-0.1,0.01-0.21-0.03-0.29-0.02c-0.17,0.01-0.32-0.01-0.32-0.01
					s0.08-0.1,0.26-0.22c0.09-0.05,0.2-0.09,0.33-0.12c0.13-0.03,0.26-0.01,0.4-0.01c0.27,0.06,0.51,0.16,0.66,0.3
					C288.66,124.51,288.73,124.63,288.73,124.63z"/>
			</g>
			<g>
				<path style="fill:#1B2E37;" d="M281.75,123.8c0,0-0.14-0.01-0.32-0.03c-0.09-0.02-0.2-0.02-0.3-0.05
					c-0.1-0.02-0.22-0.04-0.33-0.05c-0.11-0.01-0.22-0.05-0.32-0.04c-0.1,0.01-0.21-0.03-0.29-0.02c-0.17,0.01-0.32-0.01-0.32-0.01
					s0.08-0.1,0.26-0.22c0.09-0.05,0.2-0.09,0.33-0.12c0.13-0.03,0.26-0.01,0.4-0.01c0.27,0.06,0.51,0.16,0.66,0.3
					C281.69,123.67,281.75,123.8,281.75,123.8z"/>
			</g>
			<g>
				<path style="fill:#1B2E37;" d="M281.5,131.04c0,0,0.28,0.03,0.68,0.12c0.2,0.05,0.43,0.03,0.67,0.07
					c0.24,0.04,0.51,0.02,0.77,0.03c0.26,0,0.53,0,0.78-0.01c0.25-0.03,0.49-0.01,0.69-0.03c0.41-0.02,0.68-0.03,0.68-0.03
					s-0.24,0.15-0.64,0.27c-0.4,0.14-0.95,0.21-1.51,0.23c-0.28-0.03-0.56-0.03-0.82-0.09c-0.13-0.03-0.26-0.07-0.37-0.1
					c-0.12-0.04-0.23-0.06-0.32-0.11C281.74,131.2,281.5,131.04,281.5,131.04z"/>
			</g>
			<g>
				<path style="fill:#1B2E37;" d="M283.64,128.34c0,0-0.05-0.02-0.13-0.07c-0.08-0.04-0.19-0.04-0.33-0.02
					c-0.26,0.04-0.61,0.28-0.67,0.59c-0.04,0.15-0.04,0.32,0.03,0.47c0.07,0.15,0.14,0.31,0.23,0.43c0.08,0.13,0.17,0.23,0.23,0.31
					c0.06,0.08,0.09,0.12,0.09,0.12s-0.05-0.02-0.14-0.06c-0.08-0.05-0.22-0.09-0.35-0.21c-0.13-0.1-0.29-0.24-0.4-0.45
					c-0.11-0.2-0.16-0.47-0.1-0.74c0.08-0.27,0.27-0.46,0.47-0.59c0.2-0.12,0.43-0.16,0.62-0.13c0.18,0.01,0.32,0.13,0.39,0.2
					C283.61,128.29,283.64,128.34,283.64,128.34z"/>
			</g>
			<g>
				<path style="fill:#1B2E37;" d="M270.4,152.27c0,0-0.03,1.45-0.12,3.61c-0.05,1.08-0.11,2.34-0.18,3.7
					c-0.08,1.35-0.17,2.79-0.25,4.24c-0.1,1.44-0.21,2.88-0.31,4.23c-0.11,1.35-0.22,2.61-0.31,3.69c-0.2,2.16-0.36,3.6-0.36,3.6
					s0.03-1.45,0.12-3.61c0.05-1.08,0.11-2.34,0.18-3.7c0.08-1.35,0.17-2.79,0.25-4.24c0.1-1.44,0.21-2.88,0.31-4.23
					c0.11-1.35,0.22-2.61,0.31-3.69C270.24,153.71,270.4,152.27,270.4,152.27z"/>
			</g>
			<g>
				<path style="fill:#1B2E37;" d="M289.1,135.79c0,0-0.1,0.12-0.26,0.33c-0.08,0.11-0.2,0.22-0.35,0.34
					c-0.14,0.13-0.32,0.26-0.53,0.37c-0.2,0.13-0.44,0.22-0.69,0.32c-0.25,0.12-0.53,0.17-0.82,0.24c-0.58,0.1-1.21,0.18-1.83,0.16
					c-0.63-0.02-1.25-0.11-1.82-0.24c-0.57-0.13-1.08-0.33-1.5-0.54c-0.43-0.2-0.73-0.46-0.93-0.64c-0.18-0.21-0.27-0.33-0.27-0.33
					s0.12,0.1,0.32,0.27c0.22,0.15,0.55,0.33,0.97,0.49c0.42,0.17,0.93,0.29,1.49,0.4c0.55,0.1,1.15,0.18,1.75,0.18
					c0.6,0.04,1.2-0.02,1.75-0.1c0.27-0.07,0.55-0.09,0.79-0.18c0.25-0.07,0.48-0.14,0.68-0.24c0.21-0.08,0.39-0.18,0.54-0.28
					c0.16-0.09,0.3-0.17,0.39-0.27C288.98,135.88,289.1,135.79,289.1,135.79z"/>
			</g>
			<path style="fill:#6F5850;" d="M264.07,172.75c-3.69,8.01-9.09,5.84-9.63,2.25l-6.98-24.15c1.87-0.36,3.71-1,5.5-1.64
				L264.07,172.75z"/>
			<path style="fill:#6F5850;" d="M244.98,141.99c-0.52-2.33-0.07-4.45,1.19-1.16c-0.69-2.96,0.43-3.77,1.33-0.44
				c-0.87-4.03,0.39-3.6,1.51,0.15c-0.51-1.89-0.44-6.76,1.8,0.95c-0.91-3.83,0.26-2.99,0.96-1.18c0.96,2.5,1.42,4.82,0.73,7.44
				l0.46,1.45c-1.79,0.64-3.63,1.28-5.5,1.64C247.47,150.85,245.66,145.06,244.98,141.99z"/>
			<g>
				<path style="fill:#1B2E37;" d="M250.81,141.5c0,0-0.21,0.09-0.49,0.25c-0.14,0.07-0.29,0.18-0.44,0.29s-0.3,0.25-0.4,0.41
					c-0.13,0.14-0.2,0.32-0.26,0.49c-0.04,0.18-0.09,0.35-0.09,0.51c-0.02,0.16-0.02,0.29-0.02,0.39c0,0.1-0.01,0.16-0.01,0.16
					s-0.03-0.05-0.07-0.14c-0.03-0.09-0.12-0.22-0.14-0.39c-0.09-0.33-0.05-0.86,0.25-1.27c0.15-0.2,0.35-0.35,0.54-0.46
					c0.19-0.12,0.4-0.16,0.56-0.21C250.58,141.46,250.81,141.5,250.81,141.5z"/>
			</g>
			<g>
				<path style="fill:#1B2E37;" d="M249.32,141.24c0,0-0.09-0.06-0.18-0.16c-0.04-0.05-0.1-0.11-0.13-0.18
					c-0.03-0.07-0.07-0.15-0.11-0.23c-0.02-0.08-0.04-0.17-0.05-0.24c-0.02-0.08-0.01-0.16-0.01-0.23c0.01-0.14,0.04-0.24,0.04-0.24
					s0.09,0.06,0.18,0.16c0.04,0.05,0.1,0.11,0.13,0.18c0.03,0.07,0.07,0.15,0.11,0.23c0.02,0.08,0.04,0.17,0.05,0.24
					c0.02,0.08,0,0.16,0.01,0.23C249.36,141.14,249.32,141.24,249.32,141.24z"/>
			</g>
			<g>
				<path style="fill:#1B2E37;" d="M247.85,141.43c0,0-0.09-0.04-0.17-0.12c-0.03-0.04-0.09-0.09-0.12-0.15
					c-0.03-0.06-0.06-0.12-0.09-0.18c-0.01-0.07-0.03-0.14-0.04-0.2c-0.01-0.06,0-0.13,0-0.19c0.02-0.11,0.06-0.2,0.06-0.2
					s0.09,0.04,0.17,0.12c0.03,0.04,0.09,0.09,0.12,0.15c0.03,0.06,0.06,0.12,0.09,0.18c0.01,0.07,0.03,0.14,0.04,0.2
					c0.01,0.06,0,0.13,0,0.19C247.89,141.35,247.85,141.43,247.85,141.43z"/>
			</g>
			<g>
				<path style="fill:#1B2E37;" d="M246.51,141.85c0,0-0.08-0.04-0.17-0.12c-0.03-0.04-0.09-0.09-0.12-0.14
					c-0.03-0.06-0.06-0.12-0.09-0.18c-0.01-0.07-0.02-0.13-0.03-0.2c-0.01-0.06,0.01-0.13,0.01-0.18c0.02-0.11,0.06-0.2,0.06-0.2
					s0.09,0.04,0.17,0.12c0.03,0.04,0.09,0.08,0.12,0.14c0.03,0.06,0.06,0.12,0.09,0.18c0.01,0.07,0.02,0.13,0.03,0.2
					c0.01,0.06-0.01,0.13-0.01,0.18C246.55,141.76,246.51,141.85,246.51,141.85z"/>
			</g>
			<g>
				<path style="fill:#1B2E37;" d="M245.87,142.03c0,0,0.22-0.14,0.56-0.3c0.17-0.08,0.37-0.17,0.61-0.23
					c0.23-0.06,0.48-0.13,0.72-0.19c0.25-0.05,0.5-0.1,0.74-0.14c0.23-0.05,0.46-0.06,0.65-0.08c0.38-0.03,0.64-0.02,0.64-0.02
					s-0.23,0.12-0.59,0.26c-0.18,0.06-0.38,0.15-0.61,0.21c-0.23,0.06-0.47,0.13-0.71,0.19c-0.25,0.05-0.49,0.09-0.72,0.14
					c-0.23,0.04-0.46,0.06-0.64,0.1C246.13,142.02,245.87,142.03,245.87,142.03z"/>
			</g>
			<path style="fill:#6F5850;" d="M306.17,204.3l1.91-22.07l-5.15-20.48l9-3.45l3.7,19.7c0.37,3.61,0.19,7.26-0.53,10.81
				l-3.17,15.64C310.02,204.53,308.02,204.58,306.17,204.3z"/>
			<path style="fill:#6F5850;" d="M311.93,204.46l-0.45,2.2c0,0,0.01,4.46-0.4,7.57c-0.31,2.36-1.46,4.2-1.51,0.68
				c-0.36,3.02-1.7,3.39-1.4-0.04c-0.56,4.09-1.6,3.25-1.36-0.66c-0.17,1.95-1.91,6.5-1.37-1.51c-0.45,3.91-1.27,2.72-1.31,0.78
				c-0.05-2.68,0.32-5.01,1.87-7.24l0.17-1.94C308.02,204.58,310.02,204.53,311.93,204.46z"/>
			<path style="fill:#F5846E;" d="M300.48,164.75c-1.44-9.92-2.45-19.1-1.39-23.45c0,0,11.71,2.13,14.16,12.88
				c0.58,2.55,1.1,5.26,1.53,7.81C310.17,163.74,305.24,164.88,300.48,164.75z"/>
			<g>
				<path style="fill:#1B2E37;" d="M305.63,211.09c0,0,0.05,0.16,0.07,0.39c0,0.11,0.03,0.25,0.02,0.39s-0.02,0.29-0.03,0.44
					c-0.03,0.15-0.06,0.3-0.08,0.44c-0.02,0.14-0.08,0.27-0.11,0.38c-0.08,0.22-0.17,0.36-0.17,0.36s-0.05-0.16-0.07-0.39
					c0-0.11-0.03-0.25-0.02-0.39c0.01-0.14,0.02-0.29,0.03-0.45c0.03-0.15,0.06-0.3,0.08-0.44s0.08-0.27,0.11-0.38
					C305.55,211.23,305.63,211.09,305.63,211.09z"/>
			</g>
			<g>
				<path style="fill:#1B2E37;" d="M306.95,213.22c0,0,0.06,0.13,0.09,0.32c0.01,0.09,0.04,0.21,0.04,0.33c0,0.12,0,0.24,0,0.37
					c-0.02,0.12-0.04,0.25-0.06,0.36c-0.02,0.12-0.07,0.22-0.09,0.31c-0.07,0.18-0.15,0.3-0.15,0.3s-0.06-0.13-0.09-0.32
					c-0.01-0.09-0.04-0.21-0.04-0.33c0-0.12,0-0.24,0-0.37c0.02-0.12,0.04-0.25,0.06-0.36s0.07-0.22,0.09-0.31
					C306.87,213.34,306.95,213.22,306.95,213.22z"/>
			</g>
			<g>
				<path style="fill:#1B2E37;" d="M308.1,213.74c0,0,0.07,0.1,0.12,0.25c0.02,0.07,0.06,0.16,0.07,0.25
					c0.01,0.09,0.02,0.19,0.03,0.29c-0.01,0.1-0.02,0.2-0.03,0.29c-0.01,0.09-0.05,0.18-0.06,0.26c-0.05,0.15-0.12,0.25-0.12,0.25
					s-0.07-0.1-0.12-0.25c-0.02-0.07-0.06-0.16-0.06-0.25c-0.01-0.09-0.02-0.19-0.03-0.29c0.01-0.1,0.02-0.2,0.03-0.29
					c0.01-0.09,0.05-0.18,0.06-0.26C308.04,213.83,308.1,213.74,308.1,213.74z"/>
			</g>
			<g>
				<path style="fill:#1B2E37;" d="M309.79,213.88c0,0,0.05,0.1,0.08,0.23c0.01,0.06,0.03,0.14,0.02,0.22
					c-0.01,0.08-0.01,0.16-0.02,0.25c-0.03,0.08-0.05,0.16-0.07,0.24c-0.02,0.08-0.08,0.14-0.1,0.2c-0.07,0.11-0.16,0.18-0.16,0.18
					s-0.05-0.1-0.08-0.23c0-0.07-0.03-0.14-0.02-0.22c0.01-0.08,0.01-0.16,0.02-0.25c0.03-0.08,0.05-0.16,0.08-0.24
					c0.02-0.08,0.08-0.14,0.1-0.2C309.7,213.95,309.79,213.88,309.79,213.88z"/>
			</g>
			<path style="fill:#F9B733;" d="M298.15,284.99l1.38,9.84l-16.06,3c0,0-2.1-3.62,2.56-6.58c4.66-2.96,4.44-5.62,4.44-5.62
				L298.15,284.99z"/>
			<path style="fill:#FFFFFF;" d="M286,291.26c5.03-0.41,5.38,3.92,5.38,3.92l8.09-2.35l0.07,2c-1.51,0.85-5.34,2.09-8.88,2.73
				c-2.99,0.54-5.52,0.44-7.18,0.27c-0.21-0.44-0.79-1.76-0.24-3.39C283.59,293.42,284.38,292.3,286,291.26z"/>
			<g>
				<path style="fill:#1B2E37;" d="M294.47,285.29c0,0,0.16,0.55,0.11,1.4c-0.03,0.42-0.08,0.92-0.23,1.43
					c-0.13,0.52-0.37,1.04-0.63,1.55c-0.28,0.5-0.63,0.95-0.98,1.35c-0.37,0.39-0.74,0.71-1.08,0.96c-0.32,0.27-0.65,0.42-0.85,0.55
					c-0.21,0.12-0.33,0.19-0.33,0.19s0.1-0.09,0.29-0.25c0.18-0.16,0.46-0.37,0.74-0.67c0.31-0.27,0.62-0.64,0.96-1.02
					c0.15-0.2,0.31-0.41,0.47-0.63c0.14-0.23,0.29-0.45,0.42-0.69c0.26-0.47,0.5-0.96,0.65-1.45c0.16-0.48,0.29-0.94,0.34-1.35
					C294.49,285.85,294.47,285.29,294.47,285.29z"/>
			</g>
			<g>
				<path style="fill:#1B2E37;" d="M292.63,290.87c0,0-0.29-0.09-0.73-0.23c-0.21-0.08-0.47-0.15-0.74-0.24
					c-0.26-0.1-0.55-0.17-0.84-0.25c-0.28-0.1-0.57-0.15-0.84-0.22c-0.27-0.04-0.53-0.08-0.75-0.12c-0.43,0-0.76-0.02-0.76-0.02
					s0.07-0.03,0.2-0.07c0.13-0.03,0.32-0.12,0.55-0.15c0.23,0,0.51-0.03,0.81,0c0.29,0.06,0.6,0.09,0.9,0.18
					c0.59,0.19,1.17,0.43,1.56,0.68C292.4,290.66,292.63,290.87,292.63,290.87z"/>
			</g>
			<g>
				<path style="fill:#1B2E37;" d="M293.67,288.91c0,0-0.28-0.05-0.68-0.14c-0.2-0.06-0.44-0.09-0.68-0.16
					c-0.24-0.07-0.51-0.12-0.77-0.17c-0.52-0.13-1.05-0.18-1.45-0.21c-0.1-0.01-0.19,0.01-0.27,0.01c-0.08,0.01-0.16,0.01-0.21,0.01
					c-0.13,0-0.2,0-0.2,0s0.06-0.03,0.17-0.08c0.06-0.02,0.13-0.05,0.21-0.09c0.08-0.03,0.17-0.09,0.28-0.09
					c0.11-0.01,0.22-0.03,0.34-0.04c0.12-0.01,0.26-0.04,0.39-0.02c0.26,0.03,0.55,0.04,0.83,0.1c0.55,0.13,1.08,0.31,1.45,0.51
					C293.45,288.73,293.67,288.91,293.67,288.91z"/>
			</g>
			<g>
				<path style="fill:#1B2E37;" d="M294.43,286.95c0,0-0.26,0.05-0.66,0.08c-0.2,0-0.43,0.03-0.67,0.02
					c-0.24-0.01-0.5-0.01-0.77-0.02c-0.26-0.03-0.52-0.05-0.76-0.08c-0.24-0.02-0.47-0.08-0.66-0.11c-0.39-0.08-0.64-0.16-0.64-0.16
					s0.26-0.05,0.66-0.08c0.2,0,0.43-0.03,0.67-0.02c0.24,0.01,0.5,0.01,0.77,0.02c0.26,0.03,0.52,0.05,0.76,0.08
					c0.24,0.02,0.47,0.08,0.66,0.11C294.18,286.87,294.43,286.95,294.43,286.95z"/>
			</g>
			<path style="fill:#F9B733;" d="M275.63,285.52l1.11,9.87l-16.13,2.56c0,0-2-3.68,2.74-6.51c4.74-2.83,4.59-5.5,4.59-5.5
				L275.63,285.52z"/>
			<path style="fill:#FFFFFF;" d="M263.31,291.46c5.04-0.27,5.27,4.06,5.27,4.06l8.15-2.13l0.01,2c-1.53,0.81-5.39,1.95-8.95,2.49
				c-3,0.46-5.53,0.29-7.18,0.07c-0.2-0.44-0.75-1.78-0.14-3.39C260.84,293.55,261.67,292.45,263.31,291.46z"/>
			<g>
				<path style="fill:#1B2E37;" d="M271.94,285.72c0,0,0.14,0.55,0.08,1.4c-0.04,0.42-0.1,0.92-0.27,1.43
					c-0.15,0.51-0.4,1.03-0.67,1.53c-0.3,0.49-0.66,0.93-1.01,1.33c-0.38,0.38-0.76,0.69-1.11,0.93c-0.33,0.26-0.66,0.4-0.87,0.53
					c-0.22,0.11-0.34,0.18-0.34,0.18s0.11-0.09,0.29-0.25c0.19-0.15,0.46-0.36,0.76-0.65c0.32-0.26,0.63-0.63,0.98-1
					c0.16-0.2,0.32-0.41,0.49-0.61c0.14-0.22,0.3-0.44,0.43-0.68c0.27-0.46,0.53-0.95,0.68-1.43c0.17-0.48,0.31-0.94,0.38-1.34
					C271.95,286.28,271.94,285.72,271.94,285.72z"/>
			</g>
			<g>
				<path style="fill:#1B2E37;" d="M269.95,291.25c0,0-0.29-0.1-0.73-0.25c-0.21-0.09-0.47-0.16-0.73-0.26
					c-0.26-0.11-0.55-0.18-0.83-0.28c-0.28-0.11-0.57-0.16-0.84-0.24c-0.27-0.05-0.53-0.1-0.75-0.14c-0.43-0.01-0.76-0.04-0.76-0.04
					s0.07-0.03,0.2-0.07c0.13-0.03,0.32-0.11,0.56-0.14c0.23,0.01,0.51-0.02,0.81,0.02c0.29,0.06,0.6,0.11,0.9,0.2
					c0.59,0.21,1.16,0.46,1.54,0.72C269.73,291.04,269.95,291.25,269.95,291.25z"/>
			</g>
			<g>
				<path style="fill:#1B2E37;" d="M271.04,289.32c0,0-0.28-0.06-0.68-0.16c-0.2-0.06-0.43-0.1-0.68-0.17
					c-0.24-0.08-0.51-0.13-0.77-0.19c-0.52-0.15-1.04-0.21-1.44-0.25c-0.1-0.02-0.19,0.01-0.27,0c-0.08,0-0.16,0-0.21,0.01
					c-0.13,0-0.2,0-0.2,0s0.06-0.03,0.17-0.08c0.06-0.02,0.13-0.05,0.21-0.08c0.08-0.03,0.18-0.08,0.28-0.09
					c0.11-0.01,0.22-0.02,0.34-0.03c0.12,0,0.26-0.04,0.39-0.01c0.26,0.04,0.55,0.05,0.82,0.12c0.55,0.15,1.07,0.34,1.44,0.55
					C270.83,289.13,271.04,289.32,271.04,289.32z"/>
			</g>
			<g>
				<path style="fill:#1B2E37;" d="M271.86,287.38c0,0-0.27,0.04-0.66,0.06c-0.2,0-0.43,0.02-0.67,0c-0.24-0.01-0.5-0.03-0.77-0.04
					c-0.26-0.03-0.52-0.07-0.76-0.1c-0.24-0.03-0.47-0.09-0.66-0.13c-0.38-0.09-0.64-0.18-0.64-0.18s0.27-0.04,0.66-0.06
					c0.2,0,0.43-0.02,0.67,0c0.24,0.01,0.5,0.03,0.77,0.04c0.26,0.03,0.52,0.07,0.76,0.1c0.24,0.03,0.47,0.09,0.66,0.13
					C271.61,287.29,271.86,287.38,271.86,287.38z"/>
			</g>
			<path style="fill:#1B2E37;" d="M294.28,125.28l-0.96,3.05l-1.09-0.22c0,0-0.15-2.66-0.6-3.33c-0.45-0.67,0.29-3.97,0.29-3.97
				s-6.55-3.6-13.04-1.77c0.31-2.61,2.26-6.19,10.51-4.06S295.69,123.9,294.28,125.28z"/>
			<g>
				<path style="fill:#1B2E37;" d="M278.44,120.9c0,0,0.01,0.61,0.01,1.53c-0.01,0.46,0,0.99-0.03,1.56
					c-0.03,0.57-0.03,1.18-0.04,1.79c-0.06,1.22-0.1,2.43-0.1,3.34c-0.01,0.91-0.06,1.53-0.06,1.53s-0.09-0.6-0.18-1.52
					c-0.02-0.23-0.04-0.48-0.06-0.74c-0.02-0.26-0.06-0.54-0.05-0.83c0.01-0.57,0.01-1.18,0.02-1.79c0.03-1.22,0.15-2.44,0.25-3.35
					S278.44,120.9,278.44,120.9z"/>
			</g>
			<g>
				<path style="fill:#2F515F;" d="M289.99,115.42c0,0-0.24,0.07-0.58,0.15c-0.17,0.03-0.37,0.09-0.58,0.13
					c-0.21,0.03-0.43,0.1-0.66,0.15c-0.45,0.08-0.87,0.23-1.21,0.33c-0.3,0.14-0.54,0.23-0.54,0.23s0.03-0.05,0.11-0.13
					c0.08-0.07,0.17-0.2,0.32-0.32c0.16-0.09,0.34-0.22,0.55-0.31c0.22-0.07,0.44-0.16,0.68-0.22c0.48-0.09,0.96-0.14,1.32-0.1
					C289.75,115.35,289.99,115.42,289.99,115.42z"/>
			</g>
			<g>
				<path style="fill:#2F515F;" d="M287.87,114.03c0,0-0.35,0.09-0.87,0.21c-0.26,0.05-0.56,0.14-0.89,0.21
					c-0.32,0.07-0.67,0.15-1,0.25c-0.34,0.08-0.68,0.17-0.98,0.29c-0.31,0.11-0.6,0.21-0.82,0.33c-0.23,0.12-0.42,0.23-0.53,0.33
					c-0.12,0.1-0.19,0.16-0.19,0.16s0.05-0.08,0.13-0.22c0.09-0.13,0.24-0.32,0.46-0.48c0.22-0.17,0.5-0.35,0.82-0.48
					c0.32-0.14,0.66-0.25,1.01-0.36c0.71-0.17,1.42-0.27,1.97-0.28C287.5,113.98,287.87,114.03,287.87,114.03z"/>
			</g>
			<g>
				<path style="fill:#2F515F;" d="M284.19,113.76c0,0-0.26,0.02-0.64,0.04c-0.19,0-0.41,0.02-0.64,0.02
					c-0.23-0.01-0.48,0.01-0.73,0.02c-0.49-0.01-0.97,0.05-1.35,0.08c-0.35,0.07-0.62,0.11-0.62,0.11s0.05-0.04,0.14-0.1
					c0.1-0.05,0.23-0.16,0.41-0.24c0.19-0.05,0.4-0.15,0.64-0.19c0.24-0.03,0.5-0.07,0.76-0.08c0.52,0,1.03,0.05,1.4,0.15
					C283.96,113.65,284.19,113.76,284.19,113.76z"/>
			</g>
			<g>
				<path style="fill:#2F515F;" d="M286.15,112.72c0,0-0.2-0.11-0.48-0.3c-0.13-0.1-0.3-0.2-0.46-0.33
					c-0.16-0.13-0.34-0.26-0.52-0.38c-0.34-0.28-0.69-0.52-0.96-0.7c-0.13-0.1-0.26-0.14-0.34-0.19c-0.09-0.05-0.14-0.08-0.14-0.08
					s0.05-0.01,0.16,0c0.09,0.02,0.26-0.02,0.42,0.05c0.16,0.07,0.38,0.1,0.55,0.22c0.18,0.11,0.39,0.22,0.57,0.36
					c0.36,0.28,0.68,0.6,0.89,0.87C286.05,112.52,286.15,112.72,286.15,112.72z"/>
			</g>
			<g>
				<path style="fill:#2F515F;" d="M289.99,111.88c0,0,0.25,0.17,0.57,0.48c0.33,0.3,0.7,0.76,1.04,1.24
					c0.17,0.25,0.29,0.52,0.43,0.76c0.13,0.25,0.19,0.51,0.28,0.71c0.05,0.1,0.04,0.21,0.06,0.3c0.01,0.09,0.02,0.17,0.03,0.24
					c0.01,0.13,0.02,0.2,0.02,0.2s-0.14-0.27-0.33-0.65c-0.22-0.37-0.51-0.86-0.84-1.33c-0.16-0.24-0.31-0.49-0.47-0.7
					c-0.15-0.22-0.28-0.44-0.41-0.62C290.14,112.15,289.99,111.88,289.99,111.88z"/>
			</g>
			<g>
				<path style="fill:#2F515F;" d="M294.61,116.99c0,0-0.06,0.21-0.26,0.46c-0.11,0.1-0.23,0.26-0.4,0.36
					c-0.16,0.11-0.35,0.21-0.54,0.29c-0.2,0.08-0.4,0.11-0.59,0.15c-0.19,0.05-0.37,0.04-0.53,0.03c-0.31-0.02-0.51-0.07-0.51-0.07
					s0.2-0.09,0.48-0.17c0.14-0.02,0.3-0.09,0.47-0.15c0.17-0.05,0.36-0.1,0.52-0.19c0.37-0.1,0.68-0.31,0.94-0.44
					C294.44,117.12,294.61,116.99,294.61,116.99z"/>
			</g>
			<g>
				<path style="fill:#1B2E37;" d="M302.43,164.74c0,0-0.1-0.23-0.24-0.65c-0.15-0.42-0.36-1.01-0.55-1.75
					c-0.22-0.73-0.37-1.6-0.57-2.53c-0.06-0.47-0.13-0.96-0.19-1.45c-0.05-0.5-0.15-1-0.16-1.5c-0.01-0.51-0.03-1.01-0.04-1.51
					c-0.01-0.25-0.01-0.5-0.02-0.74c0.02-0.24,0.04-0.49,0.05-0.72c0.04-0.47,0.08-0.93,0.12-1.37c0.04-0.43,0.07-0.84,0.17-1.21
					c0.35-1.48,0.6-2.46,0.6-2.46s-0.13,1.01-0.36,2.49c-0.14,0.74-0.08,1.63-0.16,2.56c-0.01,0.23-0.03,0.47-0.04,0.71
					c0.01,0.24,0.02,0.49,0.03,0.73c0.02,0.49,0.04,0.99,0.07,1.49c-0.01,0.5,0.08,1,0.13,1.49c0.05,0.49,0.11,0.97,0.16,1.44
					c0.18,0.92,0.25,1.8,0.44,2.53c0.15,0.74,0.27,1.36,0.38,1.78C302.36,164.49,302.43,164.74,302.43,164.74z"/>
			</g>
			<g>
				<path style="fill:#1B2E37;" d="M314.5,160.41c0,0-0.74,0.34-1.89,0.72c-0.58,0.18-1.26,0.4-1.99,0.58
					c-0.74,0.16-1.52,0.38-2.33,0.51c-0.8,0.13-1.6,0.27-2.36,0.33c-0.76,0.07-1.46,0.15-2.07,0.15c-1.22,0.02-2.02-0.01-2.02-0.01
					s0.8-0.11,2-0.23c0.6-0.03,1.29-0.19,2.04-0.28c0.75-0.08,1.54-0.24,2.33-0.38c0.8-0.11,1.58-0.31,2.32-0.45
					c0.73-0.17,1.42-0.31,2.01-0.46C313.72,160.62,314.5,160.41,314.5,160.41z"/>
			</g>
			<g>
				<path style="fill:#1B2E37;" d="M269.93,159.15c0,0-0.6-0.11-1.48-0.37c-0.43-0.14-0.95-0.3-1.48-0.51
					c-0.53-0.22-1.09-0.46-1.64-0.73c-0.54-0.28-1.07-0.6-1.55-0.92c-0.48-0.32-0.89-0.68-1.23-0.99c-0.33-0.33-0.58-0.62-0.73-0.84
					c-0.15-0.22-0.23-0.35-0.23-0.35s0.11,0.11,0.3,0.29c0.17,0.2,0.48,0.43,0.82,0.71c0.35,0.28,0.8,0.56,1.27,0.86
					c0.48,0.29,1,0.59,1.54,0.85c1.06,0.56,2.17,1.04,3,1.4C269.37,158.91,269.93,159.15,269.93,159.15z"/>
			</g>
			<g>
				<path style="fill:#1B2E37;" d="M257.84,159.54c0,0,0.37,0.71,0.87,1.79c0.25,0.54,0.55,1.17,0.84,1.86
					c0.29,0.68,0.61,1.41,0.92,2.14c0.3,0.74,0.59,1.48,0.87,2.17c0.28,0.69,0.51,1.35,0.72,1.91c0.41,1.12,0.65,1.88,0.65,1.88
					s-0.37-0.71-0.87-1.79c-0.25-0.54-0.55-1.17-0.84-1.86c-0.29-0.68-0.61-1.42-0.92-2.15c-0.3-0.74-0.59-1.48-0.87-2.17
					c-0.28-0.69-0.51-1.35-0.72-1.91C258.08,160.3,257.84,159.54,257.84,159.54z"/>
			</g>
		</g>
		<g>
			<path style="fill:#D0BAAA;" d="M189.1,168.52c0.4-2.67,1.72-4.61,3.58-6.52c1.35-1.38,2.75-1.69,0.42,1.46
				c5.07-6.17,3.23-1.69,2.02-0.17c2.49-2.99,3.81-2.89,1.44,0.45c2.12-2.69,2.83-1.51,1.04,0.92c2.44-2.51,2.01-0.4,0.63,1.53
				c-1.82,2.54-4.87,5.76-4.87,5.76"/>
			<path style="fill:#FFFFFF;" d="M188.4,168.04l-1.88,1.55c1.58,2.16,2.85,4.11,4.5,5.83c1.82-2.21,3.05-3.76,3.05-3.76
				L188.4,168.04z"/>
			<g>
				<path style="fill:#1B2E37;" d="M194.54,164.11c0,0,0.02-0.14,0.1-0.32c0.04-0.08,0.08-0.19,0.15-0.29s0.13-0.2,0.2-0.3
					c0.08-0.09,0.17-0.18,0.25-0.27c0.08-0.09,0.18-0.15,0.25-0.21c0.16-0.11,0.29-0.17,0.29-0.17s-0.02,0.14-0.1,0.32
					c-0.04,0.08-0.08,0.19-0.15,0.29c-0.07,0.1-0.13,0.2-0.2,0.3c-0.08,0.09-0.17,0.18-0.25,0.27c-0.08,0.09-0.18,0.15-0.25,0.21
					C194.67,164.05,194.54,164.11,194.54,164.11z"/>
			</g>
			<g>
				<path style="fill:#1B2E37;" d="M195.72,164.52c0,0,0.02-0.12,0.08-0.26c0.04-0.07,0.07-0.16,0.13-0.23
					c0.06-0.07,0.12-0.15,0.18-0.23c0.07-0.06,0.15-0.13,0.22-0.19c0.07-0.06,0.16-0.1,0.22-0.14c0.14-0.07,0.26-0.1,0.26-0.1
					s-0.02,0.12-0.08,0.26c-0.04,0.07-0.07,0.16-0.13,0.23c-0.06,0.07-0.12,0.15-0.18,0.23c-0.07,0.07-0.15,0.13-0.22,0.19
					c-0.07,0.06-0.16,0.1-0.22,0.14C195.84,164.5,195.72,164.52,195.72,164.52z"/>
			</g>
			<g>
				<path style="fill:#1B2E37;" d="M197.04,165.56c0,0-0.01-0.11,0.01-0.24c0.02-0.06,0.02-0.15,0.06-0.22
					c0.03-0.07,0.07-0.15,0.11-0.22c0.05-0.07,0.11-0.13,0.16-0.19c0.05-0.06,0.12-0.1,0.17-0.15c0.11-0.08,0.21-0.11,0.21-0.11
					s0.01,0.11-0.01,0.24c-0.02,0.06-0.02,0.15-0.06,0.22c-0.03,0.07-0.07,0.15-0.11,0.22c-0.05,0.07-0.11,0.13-0.16,0.19
					c-0.05,0.06-0.12,0.1-0.17,0.15C197.14,165.53,197.04,165.56,197.04,165.56z"/>
			</g>
			<path style="fill:#2E3E8B;" d="M175.09,177.23l-23.74-8.7l-1.45,12.74c0,0,17.62,8.57,23.89,8c5.65-0.51,14.47-8,18.59-13.01
				c-1.65-1.73-4.28-4.51-5.86-6.67L175.09,177.23z"/>
			<path style="fill:#D0BAAA;" d="M189.39,167.19c0.51-3.57,3.44-6.42,4.36-6.05c0.92,0.37-0.66,2.32-0.66,2.32s1.21,2.27-0.36,3.98
				"/>
			<g>
				<path style="fill:#1B2E37;" d="M193.09,163.46c0,0,0.16,0.18,0.31,0.5c0.07,0.16,0.16,0.35,0.21,0.57
					c0.06,0.21,0.08,0.46,0.12,0.69c0,0.12-0.01,0.24-0.02,0.36c-0.01,0.12-0.01,0.24-0.04,0.35c-0.03,0.11-0.07,0.22-0.1,0.32
					c-0.04,0.1-0.06,0.19-0.11,0.27c-0.21,0.3-0.38,0.47-0.38,0.47s0.05-0.25,0.15-0.55c0.04-0.16,0.03-0.36,0.07-0.55
					c0.02-0.1,0-0.21,0.01-0.31l0-0.32c-0.02-0.22-0.01-0.44-0.06-0.64c-0.04-0.2-0.04-0.4-0.08-0.57
					C193.12,163.69,193.09,163.46,193.09,163.46z"/>
			</g>
		</g>
		<g>
			<g>
				<defs>
					<circle id="SVGID_2_" cx="204.73" cy="116.67" r="50.07"/>
				</defs>
				<clipPath id="SVGID_1_">
					<use xlink:href="#SVGID_2_"  style="overflow:visible;"/>
				</clipPath>
				<circle style="clip-path:url(#SVGID_1_);fill:#879FD1;" cx="204.73" cy="116.67" r="50.07"/>
				<path style="clip-path:url(#SVGID_1_);fill:#F9B733;" d="M202.41,164.91c0,0-3.4-1.64-2.45-2.14c0.95-0.5,2.47-1.56,2.35-1.74
					c-0.12-0.19-2.11-0.35-1.06-1.41s1.58,0.45,2.02-1.01c0.44-1.45,0-1.9,0-1.9s1.6-0.38,1.93-0.38s0.02-1.28,0.02-1.28
					s3.21,2.23,4.71,0c1.5-2.23-0.09-2.56-0.09-2.56s2.98-0.42,4.35-1.33c1.37-0.91,3.65-2.07,4.11-3.2
					c0.46-1.13,0.68-3.19,3.21-4.14c2.53-0.95,5.87-1.31,7.3-4.72s2-6.48,3.95-8.44c1.95-1.95,3.39-5.06,0-5.57
					c-3.39-0.51-9.57-2.57-10.38-3.05c-0.81-0.48-2.25-0.43-3.5-2.56c-1.25-2.13-1.74-5.34-6.39-5.34c-4.66,0-5.02-2.56-6.37-3.28
					c-1.35-0.72-2.66-0.47-4.13-0.76c-1.46-0.29-2.64-1.16-3.71-0.91c-1.06,0.25-1.9,0.73-1.9,0.73s1.15,1.67,0.09,1.76
					c-1.06,0.1-0.16-1.95-0.72-2.43c-0.56-0.49,1.12-2.11,0-1.61c-1.12,0.49-1.19,1.57-2.17,1.57s-1.88,3.35-2.47,3.29
					c-0.58-0.06-1.52-2.62-2.85-1.87c-1.33,0.75-4.12,1.31-4.71-2.53c0.77-3.2,0.84-4.13-1.36-3.84c-2.2,0.29-3.63,0.45-2.51-0.67
					c1.11-1.11,0.39-3.32,1.63-4.16c1.24-0.84-0.06-0.61-1.14-0.61s-1.33,0.66-1.77,1.1s-0.82,1.23-1.43,1.41
					c-0.6,0.19-1.83,0.8-2.08,0.54c-0.26-0.26-0.08-0.04-1.1-1.59s-1.2-3.12-0.56-3.77c0.64-0.64,1.29-3.33,1.87-3.85
					c0.58-0.52,0.95-0.42,1.85-0.95s0.74-0.72,2.12,0c1.38,0.72,1.01-1.28,2.51-1.28c1.5,0,2.47,0.62,2.96,0.62
					c0.49,0,1.49-0.22,2.11,0.52s-0.75,0.67-0.06,1.79s0.44,1.01,1,1.51c0.56,0.49,1.19-0.36,0.96-1.81
					c-0.23-1.45-0.76-3.13-0.5-3.39s1.67-2.53,3.69-2.53c2.03,0,2.39-1.36,2.39-1.72c0-0.36-0.6-1.29-0.28-1.6
					c0.33-0.31,0.58,0.38,1.32-0.5c0.74-0.88,1.18-1.48,1.18-1.48s2.1,0.7,2.8,0c0.7-0.7-0.97-1.09,0.73-1.77
					c1.7-0.69,1.74-0.58,2.81-0.79c1.07-0.2-0.51,0.59-0.04,1.06c0.47,0.47,1.97-1.31,2.76-1.09c0.78,0.22,0.2-0.33-0.52-0.59
					c-0.73-0.26-3.48-1.31-2.2-1.67c1.28-0.37,1.5-0.87,0-0.71s-3.68,1.29-2.88,0.49s1.84-1.34,2.91-1.34s2.74,0.56,3.16,0.14
					s0.91-1.45,2.23-1.39c1.32,0.06,1.04-0.91,0.19-1.44s-3.21-0.33-3.21-0.33s-0.25-1.55-0.92-1.89c-0.67-0.34-0.91-0.26-0.91-0.26
					s-1.28,1.24-1.66,0.93c-0.38-0.31-1.13-0.94-1.13-0.94s-0.06-0.65-1.53-0.65s-1.48-0.72-1.81-0.33
					c-0.33,0.39-1.14,1.21-1.14,1.21s-0.46-0.01,0.3,0.81c0.76,0.83-0.12,1.36-0.37,1.11c-0.25-0.25-1.72,0.51-1.72,0.51
					s-0.27,3.01-0.9,3.01c-0.63,0-0.87-2.09-0.37-3.06s-1.52-0.18-1.75-0.2s-1.69-1.13-1.93-0.9c-0.23,0.23-1.47,0.25-1.61,0.11
					c-0.14-0.14-0.69-0.97,0.12-1.43c0.81-0.45,2.08-0.67,2.79-1.1c0.71-0.43,2.18-0.44,2.48-0.74c0.3-0.3,1.41-1.07,1.41-1.07
					s-0.1-0.46-0.34-0.23c-0.23,0.23-2.14,0.55-1.64-0.06s-0.5,0.28-0.72,0.51c-0.23,0.23-2,0.44-2,0.44s-2.07,0.52-1.1-0.25
					c0.97-0.77,1.1-1.54,1.1-1.54l-10.98,4.58l-7.57,3.19l-0.53,3.19c0,0-0.63,1.77-2.04,3.19c-1.42,1.42-3.22,3.29-3.38,4.43
					c-0.16,1.14-0.64,2.71-0.44,3.39s0.2,2.98-0.16,3.34s-0.09,1.62-0.54,2.06c-0.45,0.45-0.6,1.71,0,2.3
					c0.6,0.6,0.59,2.26,1.24,2.26c0.64,0,0.03-0.3,0.02-1.71c-0.02-1.41-0.43-3.26-0.22-3.94c0.21-0.68-0.19-2.21,0.84-2.21
					c1.03,0-0.16,0.42,0.55,3.81c0.72,3.39,1.12,4.06,1.12,4.49s-0.76,1.4-0.46,2.23s0.84,1.37,1.75,1.73s1.98,0.72,2.44,1.08
					c0.46,0.36,0.32,0.87,0.98,0.87c0.66,0,2.05-1.21,2.48-0.78c0.43,0.43,1.5,1.52,1.88,1.9c0.38,0.38,1.74,1.18,2.48,1.25
					c0.74,0.07,0.34-0.11,1.14,0.69c0.8,0.8,1.64,1.32,1.64,1.32s-0.89,0.67-0.23,1.33c0.66,0.66,1.08,0.13,1.49,0.53
					c0.41,0.41,1.27,1.36,1.75,1.47s1.2,0.21,1.2,1.07c0,0.86,0.98-0.12,0.98-0.12l-0.23-0.64l1.7-0.96l1.1,1.48
					c0,0-0.26,2.12-0.1,3.35c0.16,1.23-0.65,2.39-1,2.39c-0.35,0-0.75,0.62-1.35,1.04c-0.6,0.42-1.12,0.71-1.12,1.42
					c0,0.71,0.04,1.16,0.27,1.79c0.22,0.63,0.71,0.52,0.1,1.5c-0.6,0.98-1.34,1.09-0.73,1.69c0.61,0.61,1.05,0.9,2.19,2.04
					s1.59,2.81,2.21,3.64c0.62,0.83,0.61,1.85,1.09,2.32s0.26,0.88,1.73,1.53c1.47,0.65,2.74,1.51,3.42,1.84
					c0.68,0.33,1.02,0.63,1.14,1.23c0.12,0.6,0.25,2.35,0,3.16s-1.04,3.07-1.04,4.7c0,1.63-0.26,6.17-0.26,6.91s-0.43,1.33-0.5,2.13
					c-0.08,0.8-0.45,2.92-0.45,2.92l0.45,0.04c0,0,0.49-1.67,0.97-1.18c0.49,0.49-0.98,2.61-0.98,2.61l-0.53-0.16
					c0,0,0.53,1.46,0.26,1.56c-0.27,0.1-0.68,0.81-0.34,1.15c0.34,0.34,1.06,0.68,1.43,1.04s0.39,0.17,1.43,0.41
					c1.03,0.24,1.22-0.25,1.61,0.15C200.06,164.86,201.82,165.51,202.41,164.91z"/>
				<path style="clip-path:url(#SVGID_1_);fill:#F9B733;" d="M207.12,162.43c-0.97-0.08-2.17-0.86-1.53,0.37
					c0.63,1.23-1.16,0.04-0.26,0.63s1.06,0.6,1.41,0.6s-0.1-0.43,0.78-0.43C208.4,163.61,208.35,162.53,207.12,162.43z"/>
				<path style="clip-path:url(#SVGID_1_);fill:#F9B733;" d="M183.39,97.69c1.09-1.09,2.25-0.17,3.95,0
					c1.7,0.17,2.91,0.51,2.91,0.51s1.21,0.72,1.66,0.86c0.45,0.13,2.54,1.03,2.18,1.38s-2.11,0.57-2.95,0.57
					c-0.84,0-1.8-0.55-1.35-1s0.56-0.96-0.15-0.96s-1.49-0.67-2.21-0.77c-0.73-0.11-2.27-0.34-2.51-0.11
					c-0.24,0.23-1.32,0.97-1.63,0.66S182.81,98.26,183.39,97.69z"/>
				<path style="clip-path:url(#SVGID_1_);fill:#F9B733;" d="M195.86,100.61c1.07,0,0.95-0.23,1.77,0.21s1.93,0.95,1.93,0.95
					s1.14,1.36-0.27,0.81c-1.41-0.55-1.72-0.32-2.12-0.32s-0.49,0.3-0.99,0.3c-0.5,0-0.53-0.3-1.35-0.3c-0.82,0-0.42,0.23,0.08-0.49
					C195.39,101.06,194.49,100.61,195.86,100.61z"/>
				<path style="clip-path:url(#SVGID_1_);fill:#F9B733;" d="M201.32,101.77c1.28-0.52,2.54,0.92,2.13,0.94s-0.89,0.7-1.56,0.41
					C201.22,102.82,200.47,102.11,201.32,101.77z"/>
				<path style="clip-path:url(#SVGID_1_);fill:#F9B733;" d="M189.78,95.26c-0.37-0.5,1.16-0.77,1.45,0c0.29,0.78,0.58,0.79,0,0.78
					C190.63,96.04,190.26,95.91,189.78,95.26z"/>
				<path style="clip-path:url(#SVGID_1_);fill:#F9B733;" d="M207.86,77.37c-0.36-0.36-0.22-0.6,0.11-1.09s0.53-1.34,0.77-1.34
					s0.75-0.4,0.75,0.21c0,0.61-0.38,0.56,0.36,0.72s0.71-0.29,1.07,0.17c0.36,0.46,0.52,0.01,0.52,0.48c0,0.47,0.19,0.75,0.19,0.75
					s-0.24,0.19-0.58,0.31c-0.34,0.12-0.26,0.48-0.72,0.48c-0.46,0-0.17-0.24-0.51-0.57s-0.39-0.26-0.79-0.26
					S208.21,77.73,207.86,77.37z"/>
				<path style="clip-path:url(#SVGID_1_);fill:#F9B733;" d="M211.48,77.89c0.34-0.34,0.48-0.32,0.88-0.32c0.39,0,0.7,0.11,0.31,0.5
					c-0.39,0.39-0.49,0.48-0.87,0.48S211.29,78.08,211.48,77.89z"/>
				<path style="clip-path:url(#SVGID_1_);fill:#F9B733;" d="M206.48,78.64c0.37,0.01,0.68-0.28,0.68-0.28s-0.48-0.29-0.28-0.5
					c0.21-0.21-0.08-0.11-0.41-0.11S205.8,78.61,206.48,78.64z"/>
				<path style="clip-path:url(#SVGID_1_);fill:#F9B733;" d="M195.03,69.81c-0.37,0.16-0.86,0.28-0.86,0.09s0.18-0.5,0.52-0.42
					C195.02,69.55,195.32,69.69,195.03,69.81z"/>
				<path style="clip-path:url(#SVGID_1_);fill:#F9B733;" d="M193.4,69.16c0,0.22,0.6,0.29,0.69,0S193.4,68.94,193.4,69.16z"/>
				<path style="clip-path:url(#SVGID_1_);fill:#F9B733;" d="M194.78,68.82c0.34-0.13,0.67,0.02,0.67,0.24
					C195.45,69.28,194.13,69.06,194.78,68.82z"/>
				<path style="clip-path:url(#SVGID_1_);fill:#F9B733;" d="M194.66,68.02c0.12-0.32-0.15-0.43,0.37-0.43s0.66-0.33,0.3-0.43
					c-0.36-0.1-0.37-0.65,0.34-0.65c0.71,0,0.4,0.29,0.71,0.14s0.03-0.4,0.78-0.25c0.75,0.15,1.28-0.04,1.28-0.04
					s1.92-0.63,2.42-0.52c0.51,0.11,0.6,0.12,1.37-0.01c0.77-0.13,3.44-0.5,5.25-0.19s4.11,0.64,5.31,0.64s4.81,0.7,4.97,1.02
					c0.16,0.32-0.17,0.23-0.39,0.23s-0.71,0.1-0.77,0.15c-0.05,0.05-0.6-0.01-0.57,0.02c0.03,0.03,0.63,0.5,0.47,0.54
					c-0.17,0.04-0.47,0-0.73,0s-0.82-0.22-0.82-0.01c0,0.21-0.18,0.3-0.08,0.57c0.1,0.28,0.12,0.55,0.3,0.73
					c0.18,0.18,0.72,0.83,0.29,0.91c-0.42,0.08-0.51,0.55-1.06,0c-0.55-0.55-0.03-0.38-1.29-0.6c-1.27-0.22-1.54,0.11-2.42-0.45
					c-0.88-0.56-1.5-0.95-1.68-1.13s-0.87-0.45-0.61-0.55c0.26-0.1,0.31-0.44,0.28-0.53c-0.04-0.09-0.62,0.31-1.34-0.09
					c0.74-0.25,1.12-0.25,0.96-0.4c-0.15-0.15-0.46,0.08-0.92-0.16c-0.45-0.24-2.03-0.47-2.03-0.47l-2.88,0.01
					c0,0-1.7,0.35-1.9,0.35c-0.2,0-0.38,0.21-0.38,0.21s-0.33,0.07,0.49,0.14c0.82,0.07,1.75,0.05,1.75,0.15
					c0,0.1-0.87,0.22-0.59,0.31c0.28,0.1,0.55,0.17,0.86,0.33c0.31,0.16,1.23,0.06,1.46,0.09c0.24,0.03,1,0.25,0.63,0.33
					c-0.37,0.08-1.04,0.49-1.04,0.49l-1.4-0.55c0,0-0.44,0.61,0.25,0.53c0.69-0.08,1.16,0.08,1.13,0.18
					c-0.04,0.1-0.33,0.37-0.39,0.44s-1.9-0.59-1.75-0.44c0.15,0.15,0.51,0.41,0.84,0.54c0.33,0.13,0.68,0.19,0.68,0.19
					s0.34,0.37-0.41,0.25c-0.75-0.12-1.04-0.35-1.45-0.39c-0.41-0.04-0.99,0.29-1.02,0.14c-0.03-0.14-0.38-0.38-0.58-0.58
					c-0.2-0.2-0.4,0.04-0.93,0.04s-1.36,0.04-1.36-0.2c0-0.24,1.38-0.18,1.63-0.36c0.25-0.18,0.27-0.25,0.64-0.39
					s0.7-0.15,0.64-0.32c-0.05-0.17-0.2-0.17-0.47-0.17c-0.26,0-0.24-0.05-0.34,0.06c-0.1,0.11,0,0.54-0.55,0.46
					c-0.55-0.08-0.93,0-0.79-0.09c0.14-0.09,0.39-0.12,0.72-0.24c0.33-0.13,0.5-0.21,0.42-0.3s-0.4-0.28-0.57-0.2
					s-0.26,0.03-0.26,0.01s-0.04-0.28-0.12-0.28c-0.09,0,0.05,0.22-0.35,0.27c-0.39,0.05-1.19-0.3-1.24-0.26s-0.53-0.22-0.29,0.11
					s0.4,0.52,0.24,0.57c-0.16,0.05-0.66,0.22-0.66,0.22S194.52,68.38,194.66,68.02z"/>
				<path style="clip-path:url(#SVGID_1_);fill:#F9B733;" d="M254.32,108.51c0,0,0.48,2.46-0.37,4.4c-0.86,1.94-1.54,2.78-1.3,0
					c0.24-0.84-2.41,2.08-2.95,2.08c-0.54,0-2.33-1.18-2.68-1.53c-0.35-0.35-0.17-4.2-0.93-4.96c-0.75-0.75-1.75-0.77-1.75-2.23
					s-0.31-1.25-0.31-2.48c0-1.23,0.18-2.75-0.81-3.74c-0.99-0.99-1.57-1.57-0.99-1.57c0.58,0,2.21,0.84,2.39,0.65
					c0.19-0.19-1.49-1.72-0.79-1.98c0.7-0.25-0.17-2.13,0.27-2.13c0.43,0,0.38,2.03,0.81,0.38c0.43-1.65-1.53-1.66-1.71-1.65
					c-0.19,0.01-1.13,0.11,0-1.02s0.42-0.15,0-1.67s-0.3-2.12-0.3-2.59c0-0.47-1.21-0.11,0.3-0.47c1.51-0.36,1.39-0.9,2.05-0.9
					s1.93-0.25,2.59-0.25C248.49,86.86,254.32,102.96,254.32,108.51z"/>
				<path style="clip-path:url(#SVGID_1_);fill:#F9B733;" d="M238.78,77.5c-1.35,0-1.53,0.83-2.04,0.64
					c-0.51-0.19-1.15-0.89-0.24,0.08c0.91,0.98,1.34,1.4,1.75,1.74c0.41,0.34,1.08,0.9,1.25,1.17c0.17,0.27,0.39,0.6,0,0.6
					s-1.43-0.44-1.43-0.19s0.09,0.03,0.8,0.74c0.71,0.71,0.84,0.99,1.07,1.22c0.24,0.24,0.07,1.24,0.42,1.58s0.82,0.82,1.04,1.04
					s0.47,0.63,0.93,0.63s0.88-0.27,0.88-0.52c0-0.25-0.03-0.55-0.51-1.03c-0.48-0.48-1.22-1.09-1.05-1.62
					c0.18-0.53,0.7-0.65,0.7-1.46C242.34,81.32,239.47,77.5,238.78,77.5z"/>
				<path style="clip-path:url(#SVGID_1_);fill:#F9B733;" d="M231.1,74.18c-0.55,0.55-0.22,0.81,0.94,1.58
					c1.16,0.76,1.03,1.19,1.46,0.76c0.42-0.42,0.81-0.43,0.18-1.06c-0.63-0.63-1.56-1.28-1.56-1.28S231.43,73.85,231.1,74.18z"/>
				<path style="clip-path:url(#SVGID_1_);fill:#F9B733;" d="M220.21,68.63c0.7-0.42,1.32,0.04,1.94,0.36
					c0.62,0.32,1.45,0.4,1.13,0.62s-0.6-0.23-1.27-0.23s-1.28,0.23-1.5,0.23C220.3,69.61,219.1,69.3,220.21,68.63z"/>
			</g>
		</g>
		<g>
			<rect x="201.64" y="186.92" style="fill:#C8D5E9;" width="2.89" height="29.63"/>
			<rect x="204.53" y="186.92" style="fill:#879FD1;" width="10.7" height="29.63"/>
			<g>
				<rect x="206.05" y="188.91" style="fill:#F5846E;" width="8.98" height="24.13"/>
				<rect x="207.4" y="190.84" style="fill:#F9B733;" width="6.27" height="8.53"/>
				<polygon style="fill:#879FD1;" points="213.68,195.12 207.4,197.52 207.4,195.11 213.68,192.7 				"/>
			</g>
			<g>
				<rect x="208.53" y="187.68" style="fill:#F37259;" width="8.98" height="24.13"/>
				<rect x="209.88" y="189.61" style="fill:#F9B733;" width="6.27" height="8.53"/>
				<polygon style="fill:#879FD1;" points="216.15,193.89 209.88,196.29 209.88,193.88 216.15,191.47 				"/>
			</g>
			<g>
				<rect x="210.54" y="189.49" style="fill:#F5846E;" width="8.98" height="24.13"/>
				<rect x="211.89" y="191.42" style="fill:#F9B733;" width="6.27" height="8.53"/>
				<polygon style="fill:#879FD1;" points="218.17,195.7 211.89,198.1 211.89,195.68 218.17,193.28 				"/>
			</g>
			<rect x="204.53" y="208.19" style="fill:#C8D5E9;" width="17.78" height="8.35"/>
			<rect x="207.86" y="208.19" style="fill:#879FD1;" width="14.46" height="8.35"/>
		</g>
		<g>
			<g>
				<path style="fill:#2E3E8B;" d="M328.15,292.23c-0.66,0-1.28,0.2-1.79,0.54c-0.51-0.34-1.13-0.54-1.79-0.54
					c-1.78,0-3.23,1.45-3.23,3.23c0,1.78,1.45,3.23,3.23,3.23c0.66,0,2.91,0,3.58,0c1.79,0,3.23-1.45,3.23-3.23
					C331.38,293.67,329.94,292.23,328.15,292.23z"/>
				<g>
					<path style="fill:#1B2E37;" d="M324.58,292.23c0,0,0.16,0,0.44,0c0.14-0.01,0.31,0.01,0.5,0.07c0.2,0.04,0.42,0.09,0.63,0.22
						c0.23,0.09,0.45,0.25,0.67,0.43c0.24,0.16,0.42,0.41,0.61,0.66c0.15,0.27,0.33,0.55,0.41,0.87c0.13,0.31,0.13,0.65,0.17,0.99
						c-0.05,0.36-0.04,0.63-0.17,0.98c-0.08,0.34-0.26,0.61-0.41,0.88c-0.19,0.24-0.38,0.5-0.61,0.66
						c-0.22,0.18-0.44,0.33-0.67,0.42c-0.21,0.13-0.44,0.18-0.63,0.22c-0.19,0.05-0.36,0.08-0.5,0.07c-0.28,0-0.44,0-0.44,0
						s0.16-0.03,0.43-0.08c0.14-0.01,0.3-0.06,0.47-0.14c0.18-0.07,0.37-0.14,0.56-0.28c0.21-0.1,0.39-0.26,0.58-0.45
						c0.2-0.16,0.34-0.41,0.51-0.63c0.13-0.25,0.28-0.5,0.34-0.78c0.11-0.24,0.1-0.62,0.13-0.88c-0.04-0.29-0.02-0.6-0.13-0.87
						c-0.06-0.29-0.21-0.54-0.34-0.79c-0.17-0.21-0.31-0.46-0.51-0.63c-0.19-0.18-0.38-0.34-0.58-0.45
						c-0.19-0.13-0.38-0.21-0.56-0.27c-0.17-0.08-0.33-0.13-0.47-0.14C324.73,292.26,324.58,292.23,324.58,292.23z"/>
				</g>
				<g>
					<path style="fill:#1B2E37;" d="M326.9,292.23c0,0,0.16,0,0.44,0c0.14-0.01,0.31,0.01,0.5,0.07c0.2,0.04,0.42,0.09,0.63,0.22
						c0.23,0.09,0.45,0.25,0.67,0.43c0.24,0.16,0.42,0.41,0.61,0.66c0.15,0.27,0.33,0.55,0.41,0.87c0.13,0.31,0.13,0.65,0.17,0.99
						c-0.05,0.36-0.04,0.63-0.17,0.98c-0.08,0.34-0.26,0.61-0.41,0.88c-0.19,0.24-0.38,0.49-0.61,0.66
						c-0.22,0.18-0.44,0.33-0.67,0.43c-0.21,0.13-0.43,0.18-0.63,0.22c-0.19,0.05-0.36,0.08-0.5,0.07c-0.28,0-0.44,0-0.44,0
						s0.16-0.03,0.43-0.08c0.14-0.01,0.3-0.06,0.47-0.14c0.18-0.07,0.37-0.14,0.56-0.28c0.21-0.1,0.39-0.26,0.58-0.45
						c0.2-0.16,0.34-0.41,0.51-0.63c0.13-0.25,0.28-0.5,0.34-0.78c0.11-0.24,0.1-0.62,0.13-0.88c-0.04-0.29-0.02-0.6-0.13-0.87
						c-0.06-0.29-0.21-0.54-0.34-0.79c-0.17-0.22-0.31-0.46-0.51-0.63c-0.19-0.18-0.37-0.34-0.58-0.45
						c-0.19-0.13-0.38-0.21-0.56-0.27c-0.17-0.08-0.33-0.13-0.47-0.14C327.06,292.26,326.9,292.23,326.9,292.23z"/>
				</g>
			</g>
			<g>
				<path style="fill:#2E3E8B;" d="M353.28,292.23c-0.66,0-1.28,0.2-1.79,0.54c-0.51-0.34-1.13-0.54-1.79-0.54
					c-1.78,0-3.23,1.45-3.23,3.23c0,1.78,1.45,3.23,3.23,3.23c0.66,0,2.91,0,3.58,0c1.78,0,3.23-1.45,3.23-3.23
					C356.51,293.67,355.06,292.23,353.28,292.23z"/>
				<g>
					<path style="fill:#1B2E37;" d="M349.71,292.23c0,0,0.16,0,0.44,0c0.14-0.01,0.31,0.01,0.5,0.07c0.2,0.04,0.42,0.09,0.63,0.22
						c0.23,0.09,0.45,0.25,0.67,0.43c0.24,0.16,0.42,0.41,0.61,0.66c0.15,0.27,0.33,0.55,0.41,0.87c0.13,0.31,0.13,0.65,0.17,0.99
						c-0.05,0.36-0.04,0.63-0.17,0.98c-0.08,0.34-0.26,0.61-0.41,0.88c-0.19,0.24-0.38,0.49-0.61,0.66
						c-0.22,0.18-0.44,0.33-0.67,0.43c-0.21,0.13-0.44,0.18-0.63,0.22c-0.19,0.05-0.36,0.08-0.5,0.07c-0.28,0-0.44,0-0.44,0
						s0.16-0.03,0.43-0.08c0.14-0.01,0.3-0.06,0.47-0.14c0.18-0.07,0.37-0.14,0.56-0.28c0.21-0.1,0.39-0.26,0.58-0.45
						c0.2-0.16,0.34-0.41,0.51-0.63c0.13-0.25,0.28-0.5,0.34-0.78c0.11-0.24,0.1-0.62,0.13-0.88c-0.04-0.29-0.02-0.6-0.13-0.87
						c-0.06-0.29-0.21-0.54-0.34-0.79c-0.17-0.22-0.31-0.46-0.51-0.63c-0.19-0.18-0.38-0.34-0.58-0.45
						c-0.19-0.13-0.38-0.21-0.56-0.27c-0.17-0.08-0.33-0.13-0.47-0.14C349.86,292.26,349.71,292.23,349.71,292.23z"/>
				</g>
				<g>
					<path style="fill:#1B2E37;" d="M352.03,292.23c0,0,0.16,0,0.44,0c0.14-0.01,0.31,0.01,0.5,0.07c0.2,0.04,0.42,0.09,0.64,0.22
						c0.23,0.09,0.45,0.25,0.67,0.43c0.24,0.16,0.42,0.41,0.61,0.66c0.15,0.27,0.33,0.55,0.41,0.87c0.13,0.31,0.13,0.65,0.17,0.99
						c-0.05,0.36-0.04,0.63-0.17,0.98c-0.08,0.34-0.26,0.61-0.41,0.88c-0.19,0.24-0.38,0.5-0.61,0.66
						c-0.22,0.18-0.44,0.33-0.67,0.42c-0.21,0.13-0.44,0.18-0.63,0.22c-0.19,0.05-0.36,0.08-0.5,0.07c-0.28,0-0.44,0-0.44,0
						s0.16-0.03,0.43-0.08c0.14-0.01,0.3-0.06,0.47-0.14c0.18-0.07,0.37-0.14,0.56-0.28c0.21-0.1,0.39-0.26,0.58-0.45
						c0.2-0.16,0.34-0.41,0.51-0.63c0.13-0.25,0.28-0.5,0.34-0.78c0.11-0.24,0.1-0.62,0.13-0.88c-0.04-0.29-0.02-0.6-0.13-0.87
						c-0.06-0.29-0.21-0.54-0.34-0.79c-0.17-0.21-0.31-0.46-0.51-0.63c-0.19-0.18-0.38-0.34-0.58-0.45
						c-0.19-0.13-0.38-0.21-0.56-0.27c-0.17-0.08-0.33-0.13-0.47-0.14C352.19,292.26,352.03,292.23,352.03,292.23z"/>
				</g>
			</g>
			<path style="fill:#1B2E37;" d="M339.27,250.59h-17.09v-39.64c0-2.38,1.94-4.32,4.32-4.32h8.45c2.38,0,4.32,1.94,4.32,4.32V250.59
				z M324.64,248.13h12.17v-37.19c0-1.03-0.83-1.86-1.86-1.86h-8.45c-1.03,0-1.86,0.84-1.86,1.86V248.13z"/>
			<path style="fill:#F9B733;" d="M336.44,213.92v-2.05c0-1.33-1.08-2.42-2.42-2.42h-6.6c-1.33,0-2.42,1.08-2.42,2.42v2.05
				c0,0.88-3.2,0.88-3.2,0v-2.05c0-3.09,2.52-5.61,5.61-5.61h6.6c3.1,0,5.61,2.52,5.61,5.61v2.05
				C339.64,214.8,336.44,214.8,336.44,213.92z"/>
			<path style="fill:#F5846E;" d="M348.61,295.98h-30.87c-2.41,0-4.37-1.96-4.37-4.37v-57.64c0-2.41,1.96-4.37,4.37-4.37h30.87
				c2.41,0,4.37,1.96,4.37,4.37v57.64C352.99,294.02,351.03,295.98,348.61,295.98z"/>
			<path style="fill:#E36C54;" d="M356.98,295.98h-30.87c-2.41,0-4.37-1.96-4.37-4.37v-57.64c0-2.41,1.96-4.37,4.37-4.37h30.87
				c2.41,0,4.37,1.96,4.37,4.37v57.64C361.35,294.02,359.39,295.98,356.98,295.98z"/>
			<path style="fill:#F5846E;" d="M350.56,295.98h-18.02c0-5.96-4.83-10.79-10.79-10.79V240.4c5.96,0,10.79-4.83,10.79-10.79h18.02
				c0,5.96,4.83,10.79,10.79,10.79v44.79C355.39,285.19,350.56,290.02,350.56,295.98z"/>
			<ellipse style="fill:#E7ECF0;" cx="341.81" cy="234.06" rx="4.19" ry="1.96"/>
			<path style="fill:#E36C54;" d="M329.77,284.03L329.77,284.03c-0.69,0-1.25-0.56-1.25-1.25v-39.26c0-0.69,0.56-1.25,1.25-1.25l0,0
				c0.69,0,1.25,0.56,1.25,1.25v39.26C331.02,283.46,330.46,284.03,329.77,284.03z"/>
			<path style="fill:#E36C54;" d="M335.66,284.03L335.66,284.03c-0.69,0-1.25-0.56-1.25-1.25v-39.26c0-0.69,0.56-1.25,1.25-1.25l0,0
				c0.69,0,1.25,0.56,1.25,1.25v39.26C336.91,283.46,336.34,284.03,335.66,284.03z"/>
			<path style="fill:#E36C54;" d="M341.55,284.03L341.55,284.03c-0.69,0-1.25-0.56-1.25-1.25v-39.26c0-0.69,0.56-1.25,1.25-1.25l0,0
				c0.69,0,1.25,0.56,1.25,1.25v39.26C342.79,283.46,342.23,284.03,341.55,284.03z"/>
			<path style="fill:#E36C54;" d="M347.43,284.03L347.43,284.03c-0.69,0-1.25-0.56-1.25-1.25v-39.26c0-0.69,0.56-1.25,1.25-1.25l0,0
				c0.69,0,1.25,0.56,1.25,1.25v39.26C348.68,283.46,348.12,284.03,347.43,284.03z"/>
			<path style="fill:#E36C54;" d="M353.32,284.03L353.32,284.03c-0.69,0-1.25-0.56-1.25-1.25v-39.26c0-0.69,0.56-1.25,1.25-1.25l0,0
				c0.69,0,1.25,0.56,1.25,1.25v39.26C354.57,283.46,354.01,284.03,353.32,284.03z"/>
		</g>
		<path style="fill:#F6D0B7;" d="M178.36,232.68c0,0,9.2,0.89,10.41,9.11c1.35,9.18,0.65,45.54,0.65,45.54h-6.35l-7.81-44.67
			L166,240.7L178.36,232.68z"/>
		<path style="fill:#1B2E37;" d="M181.63,283.06l0.76,10.11l17.46,2.8c0,0,1.38-3.75-4.15-6.71c-5.53-2.96-5.9-5.69-5.9-5.69
			L181.63,283.06z"/>
		<path style="fill:#1B2E37;" d="M195.74,289.28c-5.35-0.33-4.75,4.11-4.75,4.11l-8.98-2.27l0.38,2.05
			c1.77,0.84,6.05,2.05,9.89,2.65c3.25,0.5,5.87,0.36,7.57,0.15c0.12-0.45,0.44-1.82-0.51-3.48
			C198.75,291.45,197.67,290.32,195.74,289.28z"/>
		<g>
			<path style="fill:#2F515F;" d="M195.74,289.28l-0.92,0.04l-0.45,0.07c-0.15,0.03-0.3,0.04-0.44,0.08
				c-0.28,0.1-0.58,0.15-0.84,0.29c-0.13,0.07-0.28,0.11-0.39,0.2c-0.12,0.08-0.24,0.16-0.36,0.25c-0.22,0.2-0.42,0.41-0.57,0.65
				c-0.16,0.24-0.29,0.5-0.38,0.77c-0.19,0.55-0.24,1.16-0.19,1.72l0.03,0.29l-0.28-0.07c-1.5-0.36-2.99-0.77-4.48-1.16
				c-1.49-0.41-2.97-0.84-4.45-1.31c1.52,0.29,3.03,0.62,4.53,0.96c1.5,0.37,3.01,0.71,4.5,1.11l-0.25,0.22
				c-0.05-0.66,0.02-1.29,0.24-1.9c0.11-0.3,0.26-0.59,0.45-0.85c0.19-0.26,0.43-0.48,0.68-0.68c0.13-0.09,0.27-0.17,0.41-0.25
				c0.13-0.09,0.29-0.13,0.43-0.2c0.29-0.14,0.6-0.18,0.9-0.25c0.15-0.03,0.31-0.03,0.46-0.04l0.46-0.03L195.74,289.28z"/>
		</g>
		<rect x="102.1" y="222.05" style="fill:#F9B733;" width="3.11" height="73.19"/>
		<rect x="201.64" y="222.05" style="fill:#F9B733;" width="3.11" height="73.19"/>
		<rect x="139.99" y="252.74" style="fill:#2E3E8B;" width="8.75" height="5.64"/>
		<rect x="137.92" y="249.92" style="fill:#2E3E8B;" width="12.9" height="5.64"/>
		<g>
			<path style="fill:#879FD1;" d="M119.87,191.76c0,10.61,0,42.42,0,42.42c0,9.19,7.45,16.63,16.63,16.63c0,0,32.54,1.02,36.58-3.83
				c5.66-6.79-32.35-14.89-32.35-14.89c-1.05-45.82,2.88-54.21-12.32-54.69C125.72,177.33,119.87,179.68,119.87,191.76z"/>
			<path style="fill:#F5846E;" d="M125.88,190.06c0,8.92,0,42.08,0,42.08c0,7.73,5.98,13.99,13.35,13.99c0,0,21.13,2.33,27.63,0
				c6.98-2.5,11.16-9.14-26.13-14.02c0-14.06-1.05-32.62-1.05-43.2C139.68,174.61,125.88,175.26,125.88,190.06z"/>
		</g>
		<path style="fill:#F9B733;" d="M143.36,141.71c-8.43,0.11-14.35,14.12-5.87,22.58C145.94,172.72,164.97,141.43,143.36,141.71z"/>
		<path style="fill:#F6D0B7;" d="M174.02,236.15c0,0,11.36,0.86,8.98,9.01c-2.37,8.15-14.01,43.32-14.01,43.32h-6.35l6.72-42.46
			l-8.96-1.93L174.02,236.15z"/>
		<g>
			<path style="fill:#1B2E37;" d="M174.02,236.15c0,0,0.48,0.02,1.3,0.15c0.82,0.13,2.01,0.34,3.35,0.86
				c0.67,0.27,1.38,0.59,2.07,1.06c0.17,0.12,0.35,0.24,0.52,0.36c0.17,0.13,0.32,0.29,0.48,0.44c0.35,0.28,0.6,0.66,0.87,1.03
				c0.27,0.37,0.43,0.83,0.62,1.25c0.08,0.47,0.27,0.93,0.25,1.41c0.06,0.97-0.15,1.94-0.4,2.87c-0.58,1.81-1.16,3.62-1.71,5.32
				c-0.56,1.69-1.08,3.27-1.53,4.63c-0.93,2.7-1.54,4.5-1.54,4.5s0.53-1.83,1.32-4.57c0.41-1.37,0.89-2.96,1.4-4.67
				c0.53-1.7,1.09-3.52,1.65-5.34c0.25-0.9,0.46-1.81,0.41-2.72c0.02-0.46-0.15-0.88-0.22-1.32c-0.18-0.4-0.32-0.82-0.57-1.17
				c-0.25-0.35-0.49-0.71-0.81-0.98c-0.15-0.14-0.29-0.3-0.45-0.43c-0.17-0.12-0.33-0.24-0.49-0.36c-0.65-0.47-1.34-0.81-1.99-1.09
				c-1.31-0.54-2.46-0.84-3.27-1.01C174.5,236.2,174.02,236.15,174.02,236.15z"/>
		</g>
		<path style="fill:#2E3E8B;" d="M129.79,216.41c0,0-8.89,25.59,9.76,27.32c18.65,1.73,27.32,2.38,27.32,2.38s8.24-11.06,16.7-12.14
			c-10.95-9.67-26.37-10.72-26.37-10.72l-1.58-6.84H129.79z"/>
		<path style="fill:#2E3E8B;" d="M129.79,216.41c0,0-0.22-23.13-1.3-36c-1.08-12.87,10.48-12,17.28-12.29
			c2.49-0.11,4.19,0.27,5.46,1.14c0.62,0.43,2.51,1.73,4.52,9.05c0.98,3.56,2.86,7.07,2.86,12.29c0,4.67-0.32,4.01-0.62,9.59
			c-0.44,8.09-0.51,16.21-0.51,16.21v0c0,0-1.85,8.67-9.69,2.06C139.87,226.28,136.21,219.31,129.79,216.41z"/>
		<path style="fill:#2E3E8B;" d="M154.66,172.17c0.14,3.14,0.3,4.72,1.04,6.56c2.06,5.08,4.58,6.82,4.5,10.85
			c-0.04,2.36-0.92,2.92-1.92,5.58"/>
		<polyline style="fill:#FFFFFF;" points="138.89,168.11 148.11,180.63 149.09,168.11 		"/>
		<g>
			<path style="fill:#1B2E37;" d="M150.2,181.93c0,0,0.28,2.27,0.51,5.7c0.04,0.86,0.09,1.79,0.14,2.77
				c0.04,0.98,0.11,2.02,0.12,3.09c0.02,1.07,0.04,2.18,0.05,3.31c0.03,1.13,0,2.27,0,3.42c-0.02,1.14-0.04,2.29-0.06,3.41
				c-0.03,1.13-0.1,2.23-0.14,3.3c-0.11,2.14-0.2,4.14-0.38,5.85c-0.33,3.42-0.56,5.69-0.56,5.69s0.13-2.28,0.32-5.71
				c0.05-0.85,0.13-1.78,0.14-2.76c0.03-0.98,0.07-2.02,0.1-3.09s0.1-2.18,0.12-3.3c0.01-1.12,0.02-2.27,0.03-3.41
				c0.02-1.14,0.06-2.28,0.03-3.41c-0.01-1.12-0.02-2.23-0.03-3.3c-0.02-2.14-0.08-4.14-0.13-5.85c-0.08-1.71-0.11-3.14-0.17-4.14
				C150.24,182.5,150.2,181.93,150.2,181.93z"/>
		</g>
		<g>
			<path style="fill:none;" d="M129.74,213.3"/>
		</g>
		<polygon style="fill:#2E3E8B;" points="150.2,181.93 137.42,175.86 138.21,171.71 134.23,168.92 138.89,168.11 150.27,181.38 
			149.09,168.11 151.66,168.74 151.66,171.31 154.18,173.48 		"/>
		<g>
			<path style="fill:#1B2E37;" d="M149.09,168.11l2.59,0.59l0.04,0.01l0,0.04l0.05,2.56l-0.03-0.07l2.54,2.14l0.08,0.07l-0.04,0.09
				c-1.29,2.84-2.6,5.66-3.92,8.48l-0.08,0.18l-0.18-0.09c-4.27-2-8.52-4.06-12.78-6.09l-0.13-0.06l0.03-0.14l0.82-4.14l0.06,0.15
				l-3.94-2.84l-0.17-0.13l0.21-0.03l4.68-0.73l-4.65,0.9l0.04-0.16l4.01,2.74l0.08,0.05l-0.02,0.09l-0.75,4.15l-0.1-0.2
				c4.27,2.02,8.54,4.01,12.79,6.06l-0.27,0.1c1.33-2.82,2.67-5.63,4.04-8.43l0.03,0.16l-2.49-2.2l-0.03-0.03l0-0.04l0.05-2.56
				l0.04,0.05L149.09,168.11z"/>
		</g>
		<g>
			<rect x="109.08" y="214.91" style="fill:#C8D5E9;" width="45.97" height="2.48"/>
			<rect x="109.08" y="214.91" style="fill:#879FD1;" width="31.19" height="2.48"/>
			<polygon style="fill:#879FD1;" points="102.03,190.28 133.23,190.28 140.27,214.91 109.08,214.91 			"/>
			<polygon style="fill:#C8D5E9;" points="100.28,190.28 131.47,190.28 138.52,214.91 107.33,214.91 			"/>
		</g>
		<polygon style="fill:#F6D0B7;" points="139.91,159.09 139.91,168.99 148.26,168.99 148.26,163.79 139.91,157.07 		"/>
		<path style="fill:#F5846E;" d="M139.69,168.93v-3.99c0,0,2.32,1.24,3.4,1.53c1.08,0.29,5.38,0.21,5.38,0.21l0.27,2.75
			C148.74,169.43,143.23,172.18,139.69,168.93z"/>
		<path style="fill:#F6D0B7;" d="M146.05,144.19c-7.78,0-8.37,22.27,3.25,22.27C155.16,166.47,156.94,143.9,146.05,144.19z"/>
		
			<line style="fill:none;stroke:#F5846E;stroke-width:0.2835;stroke-miterlimit:10;" x1="144.13" y1="155.75" x2="141.44" y2="155.76"/>
		<ellipse style="fill:#F6D0B7;" cx="138.84" cy="156.53" rx="1.9" ry="2.58"/>
		<path style="fill:#F9B733;" d="M139.58,154.25l-0.74,6.48c0,0,4.48-5.33,4.11-9.09c1.04,0.13,7.61-0.9,9.26-3.58
			c1.22,3.25,1.74,7.65,1.74,7.65s3.67-12.31-5.83-13.82C138.62,140.37,138.4,149.3,139.58,154.25z"/>
		<rect x="135.03" y="222.05" style="fill:#F9B733;" width="3.11" height="73.19"/>
		<rect x="235.67" y="222.05" style="fill:#F9B733;" width="3.11" height="73.19"/>
		<rect x="100.69" y="219.73" style="fill:#F1D17C;" width="139.49" height="3.69"/>
		<rect x="97.26" y="216.41" style="fill:#F9B733;" width="146.36" height="3.69"/>
		<rect x="143.05" y="219.73" style="fill:#F9B733;" width="97.12" height="3.69"/>
		<rect x="140.7" y="216.41" style="fill:#F1D17C;" width="101.82" height="3.69"/>
		<g>
			<path style="fill:#1B2E37;" d="M151.28,152.46c0,0,0.06-0.13,0.22-0.25c0.15-0.14,0.4-0.24,0.66-0.29c0.14,0,0.27-0.01,0.4,0.01
				c0.13,0.03,0.24,0.07,0.33,0.12c0.17,0.12,0.25,0.22,0.25,0.22s-0.15,0.02-0.32,0.01c-0.08-0.02-0.19,0.03-0.29,0.02
				c-0.1-0.01-0.21,0.03-0.32,0.04c-0.11,0.01-0.22,0.02-0.32,0.05c-0.1,0.03-0.21,0.02-0.3,0.05
				C151.42,152.45,151.28,152.46,151.28,152.46z"/>
		</g>
		<g>
			<path style="fill:#1B2E37;" d="M145.03,152.9c0,0,0.06-0.13,0.22-0.25c0.15-0.14,0.4-0.24,0.66-0.29c0.14,0,0.27-0.01,0.4,0.01
				c0.13,0.03,0.24,0.07,0.33,0.12c0.17,0.12,0.25,0.22,0.25,0.22s-0.15,0.02-0.32,0.01c-0.08-0.02-0.19,0.03-0.29,0.02
				c-0.1-0.01-0.21,0.03-0.32,0.04c-0.11,0.01-0.22,0.02-0.32,0.05c-0.1,0.03-0.21,0.02-0.3,0.05
				C145.17,152.89,145.03,152.9,145.03,152.9z"/>
		</g>
		<g>
			<path style="fill:#1B2E37;" d="M151.43,159.77c0,0-0.23,0.16-0.59,0.35c-0.09,0.05-0.21,0.07-0.32,0.11
				c-0.12,0.03-0.24,0.08-0.37,0.1c-0.26,0.06-0.54,0.06-0.82,0.09c-0.56-0.02-1.11-0.09-1.5-0.23c-0.4-0.12-0.64-0.27-0.64-0.27
				s0.28,0.01,0.68,0.03c0.2,0.03,0.44,0.01,0.68,0.03c0.25,0.01,0.51,0.01,0.77,0.01c0.26-0.01,0.53,0,0.76-0.03
				c0.23-0.04,0.47-0.02,0.66-0.07C151.15,159.8,151.43,159.77,151.43,159.77z"/>
		</g>
		<g>
			<path style="fill:#1B2E37;" d="M147.19,159.92c0,0,0.23,0.28,0.61,0.63c0.38,0.33,0.95,0.81,1.56,0.76
				c0.15,0.03,0.3-0.05,0.45-0.07c0.13-0.08,0.28-0.12,0.4-0.23c0.11-0.11,0.25-0.18,0.35-0.28c0.1-0.11,0.2-0.21,0.29-0.3
				c0.18-0.19,0.31-0.37,0.41-0.49c0.1-0.12,0.16-0.19,0.16-0.19s-0.03,0.08-0.09,0.23c-0.07,0.14-0.13,0.36-0.29,0.59
				c-0.15,0.23-0.33,0.5-0.61,0.73c-0.13,0.12-0.31,0.2-0.47,0.3c-0.19,0.05-0.38,0.15-0.58,0.13c-0.21,0.01-0.4-0.04-0.59-0.1
				c-0.17-0.08-0.35-0.15-0.49-0.26c-0.3-0.2-0.5-0.46-0.67-0.67C147.3,160.27,147.19,159.92,147.19,159.92z"/>
		</g>
		<g>
			<path style="fill:#1B2E37;" d="M150.76,159.13c-0.01,0,0.11-0.18,0.21-0.42c0.06-0.12,0.09-0.27,0.14-0.42
				c0.04-0.15,0.05-0.32,0.04-0.48c-0.01-0.32-0.17-0.54-0.42-0.56c-0.24-0.02-0.45,0.05-0.45,0.03c0,0,0.03-0.04,0.1-0.09
				c0.07-0.06,0.17-0.14,0.33-0.18c0.15-0.05,0.41-0.02,0.58,0.15c0.17,0.17,0.25,0.4,0.28,0.62c0,0.22-0.04,0.44-0.11,0.62
				c-0.07,0.19-0.19,0.33-0.29,0.44C150.95,159.07,150.76,159.12,150.76,159.13z"/>
		</g>
		
			<ellipse transform="matrix(0.9949 -0.1009 0.1009 0.9949 -14.8745 16.1842)" style="fill:#1B2E37;" cx="152.55" cy="155.13" rx="0.62" ry="0.59"/>
		
			<ellipse transform="matrix(0.9949 -0.1009 0.1009 0.9949 -14.9694 15.5631)" style="fill:#1B2E37;" cx="146.36" cy="155.76" rx="0.62" ry="0.59"/>
		<path style="fill:#1B2E37;" d="M163.42,282.33l-2.45,9.99l15.92,5.5c0,0,2.51-3.44-1.88-7.21c-4.39-3.76-3.89-6.49-3.89-6.49
			L163.42,282.33z"/>
		<path style="fill:#1B2E37;" d="M175.04,290.63c-5.04-1.17-5.86,3.26-5.86,3.26l-7.93-3.64l-0.28,2.06
			c1.43,1.1,5.17,2.96,8.69,4.15c2.96,1,5.53,1.28,7.23,1.35c0.26-0.42,0.99-1.71,0.6-3.48
			C177.25,293.23,176.57,291.95,175.04,290.63z"/>
		<g>
			<path style="fill:#2F515F;" d="M175.04,290.63c-0.31-0.04-0.63-0.08-0.94-0.11c-0.31,0.01-0.62-0.02-0.93,0.03
				c-0.31,0.04-0.61,0.07-0.91,0.17c-0.15,0.03-0.29,0.08-0.43,0.15s-0.29,0.11-0.41,0.2c-0.27,0.15-0.5,0.34-0.73,0.54
				c-0.22,0.21-0.42,0.44-0.59,0.68c-0.34,0.49-0.59,1.08-0.72,1.65l-0.06,0.26l-0.23-0.11c-1.32-0.6-2.64-1.23-3.95-1.85
				c-1.31-0.64-2.61-1.29-3.89-1.98c1.36,0.53,2.7,1.09,4.03,1.66c1.33,0.59,2.66,1.17,3.98,1.79l-0.29,0.15
				c0.16-0.66,0.43-1.25,0.81-1.79c0.2-0.27,0.42-0.51,0.66-0.73c0.26-0.21,0.53-0.4,0.82-0.54c0.14-0.09,0.3-0.12,0.45-0.19
				c0.15-0.06,0.31-0.11,0.47-0.13c0.32-0.08,0.64-0.11,0.96-0.11c0.32-0.02,0.64,0.05,0.96,0.07
				C174.42,290.49,174.73,290.57,175.04,290.63z"/>
		</g>
		<g>
			<path style="fill:#1B2E37;" d="M151.62,145.89c0,0-0.32,0.4-0.88,0.92c-0.55,0.53-1.36,1.16-2.21,1.73
				c-0.45,0.25-0.87,0.53-1.3,0.74c-0.21,0.11-0.43,0.2-0.63,0.29c-0.2,0.08-0.38,0.19-0.57,0.24c-0.73,0.24-1.23,0.36-1.23,0.36
				s0.45-0.25,1.13-0.58c0.34-0.16,0.7-0.42,1.12-0.63c0.42-0.22,0.83-0.52,1.25-0.78c0.42-0.27,0.84-0.55,1.23-0.82
				c0.38-0.28,0.76-0.51,1.06-0.74C151.21,146.18,151.62,145.89,151.62,145.89z"/>
		</g>
		<g>
			<path style="fill:#1B2E37;" d="M148.94,144.85c0,0-0.2,0.38-0.61,0.88c-0.2,0.25-0.45,0.53-0.73,0.82
				c-0.29,0.27-0.61,0.56-0.94,0.84c-0.36,0.24-0.69,0.51-1.05,0.7c-0.36,0.19-0.69,0.37-0.99,0.48c-0.61,0.21-1.02,0.31-1.02,0.31
				s0.37-0.23,0.92-0.52c0.28-0.14,0.56-0.39,0.89-0.58c0.34-0.2,0.65-0.48,0.98-0.72c0.33-0.25,0.65-0.52,0.95-0.77
				c0.28-0.27,0.58-0.49,0.8-0.71C148.63,145.13,148.94,144.85,148.94,144.85z"/>
		</g>
		<g>
			<path style="fill:#1B2E37;" d="M144.8,144.85c0,0-0.36,0.36-0.87,0.92c-0.26,0.27-0.54,0.62-0.84,0.97
				c-0.29,0.36-0.6,0.76-0.85,1.18c-0.14,0.2-0.26,0.42-0.38,0.63c-0.13,0.21-0.2,0.43-0.3,0.64c-0.08,0.22-0.15,0.43-0.22,0.62
				c-0.04,0.21-0.08,0.4-0.12,0.58c-0.01,0.18-0.02,0.35-0.03,0.5c-0.02,0.15,0.02,0.28,0.03,0.39c0.02,0.22,0.04,0.35,0.04,0.35
				s-0.04-0.12-0.12-0.33c-0.03-0.11-0.1-0.24-0.11-0.39c-0.02-0.16-0.05-0.34-0.05-0.53c0.02-0.2,0.03-0.41,0.05-0.63
				c0.05-0.22,0.09-0.46,0.18-0.69c0.1-0.22,0.17-0.47,0.29-0.69c0.12-0.23,0.23-0.46,0.38-0.68c0.57-0.87,1.29-1.61,1.88-2.1
				C144.36,145.1,144.8,144.85,144.8,144.85z"/>
		</g>
		<g>
			<path style="fill:#1B2E37;" d="M164.81,245.96c0,0,0.1-0.35,0.33-0.93c0.23-0.59,0.58-1.42,1.11-2.38
				c0.52-0.95,1.2-2.03,2.04-3.1c0.43-0.53,0.89-1.06,1.38-1.58c0.52-0.49,1.01-1.03,1.6-1.47l0.86-0.67
				c0.3-0.21,0.61-0.39,0.91-0.59c0.59-0.41,1.23-0.72,1.84-1.01c0.6-0.33,1.24-0.52,1.83-0.72c0.3-0.1,0.58-0.2,0.86-0.28
				c0.29-0.06,0.57-0.12,0.83-0.17c0.54-0.1,1.02-0.23,1.46-0.26c0.44-0.03,0.82-0.05,1.14-0.07c0.63-0.04,0.99-0.06,0.99-0.06
				s-0.36,0.05-0.98,0.13c-0.31,0.04-0.69,0.09-1.12,0.15c-0.43,0.06-0.9,0.22-1.43,0.34c-0.26,0.06-0.53,0.13-0.81,0.2
				c-0.27,0.09-0.55,0.21-0.84,0.31c-0.57,0.22-1.19,0.43-1.77,0.76c-0.6,0.29-1.22,0.6-1.79,1.01c-0.29,0.19-0.59,0.38-0.88,0.58
				l-0.83,0.67c-0.58,0.42-1.07,0.94-1.58,1.42c-0.49,0.5-0.95,1.02-1.38,1.53c-0.41,0.53-0.83,1.03-1.17,1.54
				c-0.36,0.5-0.67,0.99-0.95,1.45c-0.55,0.92-0.98,1.71-1.25,2.28C164.93,245.62,164.81,245.96,164.81,245.96z"/>
		</g>
		<rect x="153.47" y="182.47" style="fill:#FFFFFF;" width="4.11" height="5.1"/>
		<rect x="155.31" y="181.38" style="fill:#C8D5E9;" width="1.04" height="1.55"/>
		<g>
			<path style="fill:#D0BAAA;" d="M171.88,165.37c-0.31-2.68,0.46-4.9,1.77-7.22c0.94-1.69,2.22-2.35,0.78,1.3
				c3.29-7.27,2.68-2.47,1.91-0.68c1.63-3.53,2.93-3.78,1.5,0.06c1.35-3.15,2.34-2.2,1.25,0.62c1.7-3.06,1.84-0.91,1,1.31
				c-1.1,2.92-3.21,6.82-3.21,6.82"/>
			<path style="fill:#FFFFFF;" d="M171.08,165.09l-1.41,1.98c2.09,1.67,3.81,3.23,5.86,4.47c1.18-2.6,1.97-4.42,1.97-4.42
				L171.08,165.09z"/>
			<g>
				<path style="fill:#1B2E37;" d="M175.99,159.7c0,0-0.01-0.14,0.01-0.33c0.02-0.09,0.03-0.21,0.07-0.32s0.08-0.23,0.12-0.35
					c0.06-0.11,0.12-0.22,0.17-0.32c0.05-0.1,0.13-0.19,0.19-0.27c0.12-0.15,0.23-0.24,0.23-0.24s0.01,0.14-0.01,0.33
					c-0.02,0.09-0.03,0.21-0.07,0.32c-0.04,0.11-0.08,0.23-0.12,0.35c-0.06,0.11-0.12,0.22-0.17,0.32c-0.05,0.1-0.13,0.19-0.19,0.27
					C176.1,159.61,175.99,159.7,175.99,159.7z"/>
			</g>
			<g>
				<path style="fill:#1B2E37;" d="M177.25,159.79c0,0-0.01-0.12,0.01-0.27c0.02-0.07,0.03-0.17,0.06-0.25
					c0.04-0.09,0.07-0.18,0.11-0.27c0.06-0.08,0.11-0.17,0.16-0.24c0.05-0.08,0.13-0.14,0.18-0.19c0.12-0.11,0.22-0.16,0.22-0.16
					s0.01,0.12-0.01,0.27c-0.02,0.07-0.03,0.17-0.06,0.25c-0.04,0.09-0.07,0.18-0.11,0.27c-0.06,0.08-0.11,0.17-0.16,0.24
					c-0.05,0.08-0.13,0.14-0.18,0.19C177.35,159.74,177.25,159.79,177.25,159.79z"/>
			</g>
			<g>
				<path style="fill:#1B2E37;" d="M178.79,160.46c0,0-0.04-0.1-0.05-0.24c0-0.06-0.01-0.15,0-0.22c0.01-0.08,0.03-0.16,0.05-0.24
					c0.03-0.08,0.07-0.15,0.1-0.23c0.03-0.07,0.09-0.13,0.13-0.19c0.09-0.1,0.18-0.16,0.18-0.16s0.04,0.1,0.05,0.24
					c0,0.06,0.01,0.15,0,0.22c-0.01,0.08-0.03,0.16-0.05,0.24c-0.03,0.08-0.07,0.15-0.1,0.23c-0.03,0.07-0.09,0.13-0.13,0.18
					C178.88,160.4,178.79,160.46,178.79,160.46z"/>
			</g>
			<path style="fill:#2E3E8B;" d="M160.61,177.41l-23.39-4.35l0.12,14.77c0,0,19.24,3.72,25.15,1.54
				c5.32-1.96,11.9-11.47,14.59-17.38c-2.04-1.24-5.31-3.25-7.39-4.92L160.61,177.41z"/>
			<g>
				<path style="fill:#1B2E37;" d="M137.8,173.17c3.82,0.58,7.64,1.23,11.44,1.92c1.9,0.34,3.8,0.69,5.7,1.06
					c1.9,0.36,3.8,0.73,5.69,1.12l-0.13,0.04c1.25-1.4,2.54-2.77,3.82-4.15c-1.2,1.45-2.39,2.9-3.61,4.33l-0.05,0.06l-0.08-0.01
					c-1.91-0.31-3.81-0.66-5.71-1c-1.9-0.34-3.8-0.69-5.7-1.06C145.37,174.77,141.58,174,137.8,173.17z"/>
			</g>
			<path style="fill:#D0BAAA;" d="M171.82,164.01c-0.43-3.58,1.66-7.09,2.65-6.98c0.98,0.11-0.04,2.41-0.04,2.41
				s1.76,1.88,0.68,3.94"/>
		</g>
		<ellipse style="fill:#F9B733;" cx="135.13" cy="149.12" rx="5.6" ry="5.81"/>
		<g>
			<path style="fill:#1B2E37;" d="M137.8,144.01c0,0-0.62,0.47-1.36,1.35c-0.37,0.44-0.76,0.98-1.12,1.59
				c-0.19,0.3-0.35,0.63-0.52,0.96c-0.17,0.33-0.29,0.69-0.44,1.04c-0.12,0.36-0.25,0.71-0.36,1.07c-0.09,0.36-0.17,0.72-0.26,1.07
				c-0.05,0.35-0.12,0.69-0.17,1.01c-0.05,0.32-0.07,0.63-0.1,0.92c-0.07,0.57-0.06,1.05-0.08,1.39c-0.02,0.34-0.03,0.53-0.03,0.53
				s-0.02-0.19-0.06-0.53c-0.02-0.34-0.11-0.82-0.08-1.4c-0.01-0.58,0.04-1.26,0.15-1.99c0.08-0.36,0.16-0.73,0.24-1.1
				c0.1-0.37,0.22-0.74,0.34-1.12c0.16-0.36,0.3-0.73,0.48-1.06c0.18-0.34,0.36-0.68,0.56-0.98c0.39-0.63,0.85-1.13,1.26-1.56
				C137.1,144.36,137.8,144.01,137.8,144.01z"/>
		</g>
		<circle style="fill:none;stroke:#F5846E;stroke-width:0.2835;stroke-miterlimit:10;" cx="146.33" cy="155.75" r="2.21"/>
		<circle style="fill:none;stroke:#F5846E;stroke-width:0.2835;stroke-miterlimit:10;" cx="152.55" cy="154.93" r="2.21"/>
		
			<line style="fill:none;stroke:#F5846E;stroke-width:0.2835;stroke-miterlimit:10;" x1="148.58" y1="155.33" x2="150.36" y2="155.13"/>
		<path style="fill:#F5846E;" d="M143.52,168.2l0.44,3.4c0.16,1.22-0.3,2.44-1.21,3.26l-3.85,3.46c0,0,0.14-5.57,1.48-6.65
			C141.71,170.58,141.79,168.25,143.52,168.2z"/>
		<path style="fill:#F5846E;" d="M143.01,168.11c0,0-3.69,0.31-5.42,2.19c-1.73,1.88-2.1,2.96-2.1,2.96S142.39,172.19,143.01,168.11
			z"/>
		<g>
			<path style="fill:#1B2E37;" d="M140.37,171.67c0,0,0.16-0.18,0.39-0.43c0.13-0.11,0.25-0.27,0.41-0.41
				c0.16-0.14,0.3-0.31,0.46-0.47c0.32-0.31,0.59-0.65,0.81-0.91c0.17-0.28,0.33-0.47,0.33-0.47s-0.02,0.23-0.12,0.58
				c-0.08,0.16-0.16,0.35-0.28,0.54c-0.13,0.18-0.28,0.36-0.43,0.55c-0.34,0.32-0.71,0.62-1.03,0.78
				C140.6,171.6,140.37,171.67,140.37,171.67z"/>
		</g>
		<g>
			<path style="fill:#1B2E37;" d="M139.91,168.99c0,0,0.19-0.15,0.51-0.31c0.31-0.17,0.76-0.33,1.21-0.46
				c0.23-0.06,0.47-0.08,0.69-0.12c0.22-0.03,0.44-0.01,0.61-0.02c0.18,0,0.33,0.06,0.43,0.08c0.1,0.02,0.16,0.04,0.16,0.04
				s-0.24,0.06-0.57,0.12c-0.33,0.09-0.78,0.18-1.22,0.31c-0.22,0.05-0.45,0.1-0.66,0.16c-0.21,0.05-0.41,0.08-0.58,0.12
				C140.15,168.97,139.91,168.99,139.91,168.99z"/>
		</g>
		<g>
			<path style="fill:#1B2E37;" d="M143.62,168.98c0,0,0.07,0.08,0.12,0.21c0.02,0.06,0.06,0.14,0.07,0.21
				c0.01,0.08,0.02,0.16,0.03,0.25c-0.01,0.08-0.02,0.17-0.03,0.25c-0.01,0.08-0.05,0.15-0.06,0.21c-0.05,0.13-0.12,0.21-0.12,0.21
				s-0.07-0.08-0.12-0.21c-0.02-0.06-0.06-0.14-0.06-0.21c-0.01-0.08-0.02-0.16-0.03-0.25c0.01-0.08,0.02-0.17,0.03-0.25
				c0.01-0.08,0.05-0.15,0.07-0.21C143.55,169.07,143.62,168.98,143.62,168.98z"/>
		</g>
		<g>
			<path style="fill:#1B2E37;" d="M137.8,187.7c0,0,0.34,0.08,0.95,0.21c0.6,0.13,1.46,0.29,2.5,0.48c1.03,0.22,2.25,0.38,3.55,0.61
				c0.65,0.13,1.32,0.19,2.01,0.28c0.68,0.09,1.38,0.18,2.08,0.26c0.7,0.06,1.4,0.12,2.08,0.17c0.69,0.04,1.36,0.14,2.02,0.14
				c0.66,0.01,1.29,0.02,1.89,0.03c0.6,0,1.17,0.04,1.7,0.02c2.09-0.16,3.5-0.24,3.5-0.24s-1.39,0.21-3.49,0.48
				c-0.53,0.05-1.1,0.03-1.71,0.05c-0.61,0.01-1.25,0.02-1.91,0.03s-1.34-0.08-2.04-0.11c-0.69-0.05-1.4-0.1-2.1-0.15
				c-0.7-0.1-1.4-0.2-2.08-0.29c-0.69-0.1-1.37-0.18-2.01-0.31c-1.3-0.24-2.51-0.48-3.54-0.74c-1.03-0.23-1.88-0.48-2.47-0.65
				C138.14,187.8,137.8,187.7,137.8,187.7z"/>
		</g>
		<g>
			<path style="fill:#1B2E37;" d="M165.55,187.57c0,0,0.55-0.71,1.4-1.76c0.85-1.04,1.99-2.42,3.13-3.81
				c1.17-1.36,2.31-2.74,3.14-3.79c0.85-1.04,1.45-1.72,1.45-1.72s-0.48,0.75-1.25,1.86c-0.19,0.28-0.41,0.57-0.63,0.89
				c-0.23,0.31-0.45,0.66-0.72,0.98c-0.53,0.65-1.1,1.35-1.66,2.05c-1.15,1.38-2.36,2.71-3.28,3.7
				C166.2,186.95,165.55,187.57,165.55,187.57z"/>
		</g>
		<path style="fill:#879FD1;" d="M265.76,196.29l13.11,7.72l21.99-4.65l-0.42-7.9l-21.49,6.67l-11.24-8.08
			C267.71,190.06,264.32,190.73,265.76,196.29z"/>
		<path style="fill:#879FD1;" d="M281.17,204.3h-4.36c-0.6,0-1.1-0.5-1.1-1.1v-4.31c0-0.6,0.5-1.1,1.1-1.1h4.36
			c0.6,0,1.1,0.5,1.1,1.1v4.31C282.27,203.81,281.78,204.3,281.17,204.3z"/>
		<path style="fill:#879FD1;" d="M281.35,203.38c0,0,5.81,11,4.83,22c7-1.56,7-1.56,7-1.56s0.45-23.15-12.33-24.65"/>
		<path style="fill:#879FD1;" d="M277.32,203.47c0,0-4.24,9.06-2.26,16.63c-3.43,1.43-5.43-2.53-5.43-2.53s-1.3-14.31,7.69-16.59"/>
		<g>
			<path style="fill:#1B2E37;" d="M277.96,198.1c-0.37,0.01-0.72,0.09-1.02,0.27c-0.3,0.17-0.53,0.43-0.68,0.73
				c-0.16,0.29-0.24,0.63-0.3,0.97c-0.05,0.35-0.03,0.7-0.04,1.05v0.03l0,0.01c-0.1,0.64-0.16,1.27-0.13,1.88
				c0.02,0.3,0.1,0.6,0.27,0.84c0.09,0.12,0.2,0.22,0.34,0.29c0.14,0.07,0.29,0.1,0.46,0.13c-0.16,0.01-0.33,0.01-0.49-0.03
				c-0.16-0.05-0.32-0.13-0.45-0.26c-0.25-0.25-0.36-0.6-0.43-0.93c-0.13-0.67-0.03-1.33,0.02-1.97l0,0.03
				c-0.02-0.38,0.01-0.75,0.07-1.13c0.08-0.37,0.17-0.76,0.39-1.08c0.21-0.33,0.52-0.6,0.88-0.75
				C277.21,198.04,277.61,198.01,277.96,198.1z"/>
		</g>
		<g>
			<path style="fill:#1B2E37;" d="M281.81,204.3c0,0-0.18-0.07-0.48-0.25c-0.29-0.19-0.71-0.47-1.09-0.95
				c-0.37-0.47-0.71-1.2-0.57-1.99l0.02-0.15c0.02-0.09,0.03-0.1,0.05-0.16c0.03-0.09,0.05-0.18,0.1-0.27
				c0.12-0.2,0.25-0.39,0.42-0.52c0.34-0.27,0.77-0.42,1.18-0.45c0.42-0.05,0.83,0.01,1.22,0.07c0.39,0.08,0.77,0.19,1.12,0.32
				c0.71,0.27,1.3,0.65,1.79,0.99c0.48,0.35,0.84,0.7,1.08,0.94c0.23,0.26,0.36,0.4,0.36,0.4s-0.15-0.12-0.42-0.34
				c-0.26-0.22-0.67-0.5-1.16-0.81c-0.25-0.15-0.52-0.3-0.82-0.45c-0.3-0.15-0.62-0.27-0.96-0.4c-0.34-0.11-0.7-0.21-1.06-0.28
				c-0.37-0.05-0.75-0.09-1.11-0.04c-0.37,0.02-0.71,0.14-0.98,0.34c-0.15,0.1-0.22,0.23-0.32,0.35c-0.04,0.08-0.07,0.17-0.1,0.26
				c-0.01,0.03-0.04,0.11-0.04,0.11l-0.02,0.13c-0.13,0.67,0.08,1.33,0.4,1.79c0.32,0.47,0.68,0.81,0.94,1.02
				C281.64,204.2,281.81,204.3,281.81,204.3z"/>
		</g>
		<g>
			<path style="fill:#1B2E37;" d="M281.71,197.28c0,0,0.17,0.08,0.36,0.27c0.09,0.1,0.2,0.21,0.29,0.35
				c0.08,0.14,0.18,0.29,0.25,0.46c0.13,0.33,0.21,0.68,0.2,0.95c-0.01,0.27-0.05,0.44-0.05,0.44s-0.1-0.16-0.19-0.4
				c-0.03-0.12-0.12-0.25-0.17-0.39c-0.04-0.15-0.12-0.29-0.19-0.44c-0.11-0.31-0.26-0.6-0.35-0.83
				C281.77,197.45,281.71,197.28,281.71,197.28z"/>
		</g>
		<g>
			<path style="fill:#1B2E37;" d="M272.3,198.52c0,0,0.2,0.03,0.49,0.12c0.14,0.05,0.31,0.09,0.47,0.17
				c0.17,0.08,0.34,0.16,0.52,0.24c0.17,0.1,0.34,0.2,0.49,0.29c0.16,0.09,0.29,0.2,0.41,0.29c0.24,0.18,0.38,0.33,0.38,0.33
				s-0.2-0.03-0.49-0.12c-0.14-0.05-0.31-0.09-0.47-0.17c-0.17-0.08-0.34-0.16-0.52-0.24c-0.17-0.1-0.34-0.2-0.49-0.29
				c-0.16-0.09-0.29-0.2-0.41-0.29C272.45,198.67,272.3,198.52,272.3,198.52z"/>
		</g>
		<g>
			<path style="fill:#1B2E37;" d="M276.38,198.65c0,0-0.23-0.09-0.53-0.27c-0.15-0.1-0.33-0.19-0.51-0.33
				c-0.18-0.13-0.37-0.27-0.56-0.41c-0.18-0.15-0.36-0.31-0.52-0.45c-0.17-0.14-0.3-0.3-0.43-0.43c-0.24-0.26-0.38-0.46-0.38-0.46
				s0.23,0.09,0.53,0.27c0.15,0.1,0.33,0.19,0.51,0.33c0.18,0.13,0.37,0.27,0.56,0.41c0.18,0.15,0.36,0.31,0.52,0.45
				c0.17,0.14,0.3,0.3,0.43,0.43C276.24,198.45,276.38,198.65,276.38,198.65z"/>
		</g>
		<g>
			<path style="fill:#1B2E37;" d="M282.76,198.52c0,0,0.42-0.14,1.06-0.31c0.32-0.08,0.69-0.18,1.09-0.26
				c0.4-0.08,0.83-0.17,1.26-0.25c0.43-0.07,0.86-0.14,1.27-0.2c0.4-0.06,0.79-0.09,1.11-0.13c0.66-0.07,1.1-0.08,1.1-0.08
				s-0.42,0.14-1.06,0.31c-0.32,0.08-0.69,0.18-1.09,0.26c-0.4,0.08-0.83,0.17-1.26,0.25c-0.43,0.07-0.86,0.13-1.27,0.2
				c-0.41,0.06-0.79,0.09-1.11,0.13C283.21,198.51,282.76,198.52,282.76,198.52z"/>
		</g>
		<g>
			<path style="fill:#1B2E37;" d="M275.72,204.02c0,0-0.2,0.3-0.45,0.75c-0.15,0.21-0.25,0.5-0.42,0.77
				c-0.13,0.29-0.3,0.59-0.41,0.91c-0.12,0.32-0.28,0.62-0.34,0.93c-0.06,0.31-0.21,0.59-0.23,0.84c-0.08,0.5-0.18,0.86-0.18,0.86
				s-0.05-0.35-0.06-0.88c-0.02-0.27,0.06-0.58,0.11-0.91c0.05-0.34,0.2-0.66,0.31-1c0.13-0.33,0.33-0.63,0.48-0.93
				c0.19-0.28,0.37-0.53,0.55-0.73C275.42,204.22,275.72,204.02,275.72,204.02z"/>
		</g>
		<g>
			<path style="fill:#1B2E37;" d="M283.83,202.97c0,0,0.41,0.41,0.94,1.1c0.55,0.68,1.19,1.64,1.77,2.65
				c0.29,0.51,0.52,1.04,0.76,1.53c0.12,0.25,0.19,0.5,0.27,0.74c0.08,0.24,0.16,0.46,0.23,0.67c0.07,0.21,0.08,0.41,0.12,0.59
				c0.03,0.18,0.05,0.33,0.07,0.45c0.03,0.25,0.05,0.39,0.05,0.39s-0.05-0.14-0.13-0.38c-0.04-0.12-0.09-0.26-0.14-0.43
				c-0.06-0.16-0.1-0.35-0.19-0.55c-0.18-0.39-0.38-0.84-0.61-1.33c-0.26-0.47-0.5-0.99-0.79-1.48c-0.28-0.5-0.55-1.01-0.84-1.46
				c-0.28-0.46-0.52-0.9-0.76-1.26C284.13,203.46,283.83,202.97,283.83,202.97z"/>
		</g>
		<g>
			<path style="fill:#1B2E37;" d="M326.11,295.98c0,0-0.28-0.02-0.8-0.07c-0.26-0.04-0.56-0.15-0.93-0.26
				c-0.33-0.19-0.75-0.35-1.11-0.69c-0.75-0.61-1.48-1.68-1.59-3.07c-0.07-1.37-0.05-2.89-0.07-4.57
				c-0.03-6.69-0.06-15.61-0.1-24.53c0.04-8.92,0.07-17.84,0.1-24.53c0.01-1.67-0.01-3.2,0.07-4.57c0.1-1.38,0.83-2.46,1.59-3.07
				c0.36-0.34,0.78-0.5,1.11-0.69c0.36-0.11,0.67-0.22,0.93-0.26c0.52-0.05,0.8-0.07,0.8-0.07s-0.28,0.03-0.8,0.09
				c-0.25,0.05-0.56,0.17-0.91,0.28c-0.32,0.19-0.73,0.36-1.08,0.71c-0.73,0.63-1.41,1.67-1.48,3.03c-0.04,1.34,0.02,2.89,0.01,4.55
				c0.03,6.69,0.06,15.61,0.1,24.53c-0.04,8.92-0.07,17.84-0.1,24.53c0.01,1.67-0.05,3.21-0.01,4.56c0.07,1.34,0.75,2.41,1.48,3.03
				c0.35,0.34,0.75,0.51,1.08,0.71c0.36,0.11,0.66,0.23,0.91,0.28C325.83,295.95,326.11,295.98,326.11,295.98z"/>
		</g>
		<g>
			<path style="fill:#1B2E37;" d="M323.92,295.98c0,0-0.28-0.02-0.8-0.07c-0.26-0.04-0.56-0.15-0.93-0.26
				c-0.33-0.19-0.75-0.35-1.11-0.69c-0.75-0.61-1.48-1.68-1.59-3.07c-0.07-1.37-0.05-2.89-0.07-4.57
				c-0.03-6.69-0.06-15.61-0.1-24.53c0.04-8.92,0.07-17.84,0.1-24.53c0.01-1.68-0.01-3.2,0.07-4.57c0.1-1.38,0.84-2.46,1.59-3.07
				c0.36-0.34,0.78-0.5,1.11-0.69c0.36-0.11,0.67-0.22,0.93-0.26c0.52-0.05,0.8-0.07,0.8-0.07s-0.28,0.03-0.8,0.09
				c-0.25,0.05-0.56,0.17-0.91,0.28c-0.32,0.19-0.73,0.36-1.08,0.71c-0.73,0.63-1.41,1.67-1.48,3.03c-0.04,1.34,0.02,2.89,0.01,4.55
				c0.03,6.69,0.06,15.61,0.1,24.53c-0.04,8.92-0.07,17.84-0.1,24.53c0.01,1.67-0.05,3.21-0.01,4.56c0.07,1.34,0.75,2.41,1.48,3.03
				c0.35,0.34,0.75,0.51,1.08,0.71c0.36,0.11,0.66,0.23,0.91,0.28C323.65,295.95,323.92,295.98,323.92,295.98z"/>
		</g>
		<g>
			<path style="fill:#1B2E37;" d="M322.18,295.98c0,0-0.28-0.02-0.8-0.07c-0.26-0.04-0.56-0.15-0.93-0.26
				c-0.33-0.19-0.75-0.35-1.11-0.69c-0.75-0.61-1.48-1.68-1.59-3.07c-0.07-1.37-0.05-2.89-0.07-4.57
				c-0.03-6.69-0.06-15.61-0.1-24.53c0.04-8.92,0.07-17.84,0.1-24.53c0.01-1.68-0.01-3.2,0.07-4.57c0.1-1.38,0.84-2.47,1.59-3.07
				c0.36-0.34,0.78-0.5,1.11-0.69c0.36-0.11,0.67-0.22,0.93-0.26c0.52-0.05,0.8-0.07,0.8-0.07s-0.28,0.03-0.8,0.09
				c-0.25,0.05-0.56,0.17-0.91,0.28c-0.32,0.19-0.73,0.36-1.08,0.71c-0.73,0.63-1.41,1.67-1.48,3.03c-0.04,1.34,0.02,2.89,0.01,4.56
				c0.03,6.69,0.06,15.61,0.1,24.53c-0.04,8.92-0.07,17.84-0.1,24.53c0.01,1.67-0.05,3.21-0.01,4.56c0.07,1.34,0.75,2.41,1.48,3.03
				c0.35,0.34,0.75,0.51,1.08,0.71c0.36,0.11,0.66,0.23,0.91,0.28C321.9,295.95,322.18,295.98,322.18,295.98z"/>
		</g>
		<path style="fill:#F5846E;" d="M89.57,261.62c0,0-13.69-44.23-7.17-48.62c6.52-4.39,9.17,43.78,9.17,43.78s-4.93-51.06,2.56-51.81
			c7.49-0.75-0.93,55.28-0.93,55.28s4.68-46.08,11.04-45.44c6.36,0.64-9.04,46.82-9.04,46.82s8.55-33.2,13.67-32
			c5.13,1.21-11.15,32.84-11.15,32.84"/>
		<g>
			<path style="fill:#1B2E37;" d="M90.2,239.33c0,0,0.15,1.11,0.34,2.79c0.09,0.84,0.19,1.81,0.29,2.86
				c0.09,1.05,0.19,2.17,0.29,3.28c0.08,1.12,0.16,2.24,0.23,3.29c0.06,1.05,0.12,2.03,0.16,2.87c0.08,1.68,0.1,2.81,0.1,2.81
				s-0.15-1.11-0.34-2.79c-0.09-0.84-0.19-1.81-0.29-2.86c-0.09-1.05-0.19-2.17-0.29-3.28c-0.08-1.12-0.16-2.24-0.23-3.29
				c-0.06-1.05-0.12-2.03-0.16-2.87C90.23,240.45,90.2,239.33,90.2,239.33z"/>
		</g>
		<g>
			<path style="fill:#1B2E37;" d="M96.39,235.94c0,0-0.1,1.23-0.28,3.07c-0.1,0.92-0.22,1.99-0.34,3.13
				c-0.14,1.15-0.29,2.37-0.44,3.59c-0.17,1.22-0.34,2.44-0.49,3.58c-0.17,1.14-0.33,2.21-0.47,3.12c-0.3,1.82-0.52,3.04-0.52,3.04
				s0.1-1.23,0.28-3.07c0.1-0.92,0.22-1.99,0.34-3.13c0.14-1.15,0.29-2.37,0.44-3.59c0.17-1.22,0.34-2.44,0.49-3.58
				c0.17-1.14,0.33-2.21,0.47-3.12C96.17,237.15,96.39,235.94,96.39,235.94z"/>
		</g>
		<g>
			<path style="fill:#1B2E37;" d="M101.38,241.38c0,0-0.21,0.94-0.55,2.33c-0.18,0.7-0.38,1.51-0.62,2.38
				c-0.24,0.87-0.5,1.79-0.76,2.71c-0.28,0.92-0.55,1.84-0.81,2.7c-0.26,0.86-0.53,1.66-0.75,2.34c-0.46,1.36-0.78,2.27-0.78,2.27
				s0.21-0.94,0.55-2.33c0.18-0.69,0.38-1.51,0.62-2.38c0.24-0.87,0.5-1.79,0.76-2.71c0.28-0.92,0.55-1.84,0.81-2.7
				s0.53-1.66,0.75-2.34C101.05,242.28,101.38,241.38,101.38,241.38z"/>
		</g>
		<g>
			<path style="fill:#1B2E37;" d="M83.13,214.63c0,0,0.48,2.57,1.2,6.43c0.34,1.93,0.74,4.18,1.17,6.6c0.42,2.42,0.86,5,1.3,7.57
				c0.42,2.58,0.85,5.16,1.24,7.58c0.38,2.42,0.74,4.68,1.05,6.62c0.58,3.88,0.96,6.47,0.96,6.47s-0.48-2.57-1.2-6.43
				c-0.34-1.93-0.74-4.18-1.17-6.6c-0.41-2.42-0.86-5-1.3-7.57c-0.42-2.58-0.85-5.16-1.24-7.58c-0.38-2.42-0.74-4.68-1.05-6.62
				C83.51,217.22,83.13,214.63,83.13,214.63z"/>
		</g>
		<g>
			<path style="fill:#1B2E37;" d="M93.51,207.85c0,0-0.03,3.04-0.07,7.59c-0.04,2.28-0.08,4.93-0.13,7.78
				c-0.06,2.84-0.13,5.88-0.2,8.91c-0.09,3.03-0.17,6.07-0.25,8.91c-0.1,2.84-0.18,5.5-0.26,7.77c-0.19,4.55-0.31,7.58-0.31,7.58
				s0.03-3.04,0.07-7.59c0.04-2.28,0.08-4.93,0.13-7.78c0.06-2.84,0.13-5.88,0.2-8.91c0.09-3.03,0.17-6.07,0.25-8.91
				c0.1-2.84,0.18-5.5,0.26-7.77C93.39,210.89,93.51,207.85,93.51,207.85z"/>
		</g>
		<g>
			<path style="fill:#1B2E37;" d="M103.27,217.97c0,0-0.45,2.41-1.13,6.03c-0.35,1.81-0.77,3.91-1.21,6.17
				c-0.46,2.25-0.95,4.66-1.43,7.06c-0.51,2.4-1.01,4.8-1.49,7.05c-0.49,2.25-0.95,4.34-1.34,6.14c-0.82,3.59-1.36,5.98-1.36,5.98
				s0.45-2.41,1.13-6.03c0.35-1.81,0.77-3.91,1.21-6.17c0.46-2.25,0.95-4.66,1.43-7.06c0.51-2.4,1.01-4.8,1.49-7.05
				c0.49-2.25,0.95-4.34,1.34-6.14C102.72,220.36,103.27,217.97,103.27,217.97z"/>
		</g>
		<g>
			<path style="fill:#1B2E37;" d="M107.51,233.69c0,0-0.47,1.49-1.18,3.72c-0.37,1.11-0.8,2.4-1.27,3.79
				c-0.48,1.38-0.99,2.86-1.5,4.33c-0.53,1.47-1.05,2.93-1.55,4.31c-0.51,1.37-0.98,2.65-1.39,3.75c-0.85,2.18-1.41,3.64-1.41,3.64
				s0.47-1.49,1.18-3.72c0.37-1.11,0.8-2.4,1.27-3.79c0.48-1.38,0.99-2.86,1.5-4.33c0.53-1.47,1.06-2.93,1.55-4.31
				c0.51-1.37,0.98-2.65,1.39-3.75C106.95,235.14,107.51,233.69,107.51,233.69z"/>
		</g>
		<g>
			<g>
				<path style="fill:#879FD1;" d="M104.05,296.16c5.68-3.32,9.53-9.64,9.53-16.9s-3.84-13.58-9.53-16.9v-9.51H85.84v9.51
					c-5.68,3.32-9.53,9.64-9.53,16.9s3.84,13.58,9.53,16.9H104.05z"/>
			</g>
			<g>
				<path style="fill:#6684BF;" d="M104.05,296.16c5.68-3.32,9.53-9.64,9.53-16.9s-3.84-13.58-9.53-16.9v-9.51H85.84v9.51
					c-5.68,3.32-9.53,9.64-9.53,16.9s3.84,13.58,9.53,16.9H104.05z"/>
			</g>
		</g>
		<g>
			<path style="fill:#1B2E37;" d="M78.06,271.1c0,0,2.12-0.05,5.3-0.12c1.59-0.02,3.45-0.04,5.44-0.06
				c1.99-0.01,4.11-0.02,6.23-0.03c2.12,0.01,4.24,0.02,6.23,0.03c1.99,0.02,3.84,0.05,5.44,0.07c3.18,0.07,5.3,0.12,5.3,0.12
				s-2.12,0.05-5.3,0.12c-1.59,0.02-3.45,0.04-5.44,0.07c-1.99,0.01-4.11,0.02-6.23,0.03c-2.12-0.01-4.24-0.02-6.23-0.03
				c-1.99-0.02-3.84-0.04-5.44-0.06C80.18,271.15,78.06,271.1,78.06,271.1z"/>
		</g>
	</g>
	<g>
		<g>
			<path style="fill:#879FD1;" d="M54.38,72.49c0,6.64-12.02,22.07-12.02,22.07S30.34,79.13,30.34,72.49s5.38-12.02,12.02-12.02
				S54.38,65.85,54.38,72.49z"/>
			<g>
				<path style="fill:#1B2E37;" d="M49.34,72.49c0,0-0.02,0.17-0.05,0.49c-0.06,0.31,0,0.8-0.22,1.37
					c-0.09,0.28-0.17,0.61-0.31,0.95c-0.17,0.32-0.36,0.66-0.55,1.03c-0.23,0.34-0.54,0.67-0.83,1.04
					c-0.33,0.33-0.73,0.63-1.12,0.96c-0.88,0.53-1.91,1.05-3.11,1.15c-1.21,0.22-2.43-0.03-3.68-0.49
					c-1.21-0.53-2.28-1.42-3.09-2.55c-0.76-1.18-1.16-2.53-1.22-3.99c0.06-1.34,0.46-2.79,1.22-3.94c0.81-1.13,1.88-2.02,3.09-2.55
					c1.22-0.45,2.5-0.71,3.68-0.49c1.18,0.1,2.24,0.63,3.11,1.15c0.4,0.33,0.79,0.64,1.12,0.96c0.29,0.37,0.59,0.7,0.83,1.04
					c0.2,0.37,0.38,0.71,0.55,1.03c0.14,0.33,0.21,0.66,0.31,0.94c0.22,0.56,0.16,1.05,0.22,1.37
					C49.33,72.32,49.34,72.49,49.34,72.49z M49.34,72.49c0,0-0.02-0.17-0.05-0.49c-0.06-0.31-0.01-0.8-0.24-1.36
					c-0.1-0.28-0.17-0.61-0.31-0.94c-0.17-0.32-0.36-0.66-0.56-1.02c-0.24-0.34-0.54-0.66-0.83-1.03c-0.33-0.32-0.73-0.61-1.13-0.93
					c-0.89-0.5-1.89-0.98-3.07-1.04c-1.16-0.18-2.39,0.11-3.54,0.57c-1.14,0.54-2.13,1.42-2.89,2.48c-0.71,1.13-1.06,2.38-1.12,3.78
					c0.05,1.29,0.41,2.63,1.11,3.73c0.76,1.07,1.75,1.94,2.89,2.49c0.28,0.14,0.58,0.2,0.87,0.31c0.29,0.1,0.58,0.2,0.89,0.21
					c0.31,0.04,0.61,0.07,0.91,0.1c0.28,0.01,0.58-0.04,0.87-0.06c1.17-0.06,2.19-0.55,3.08-1.04c0.4-0.32,0.8-0.61,1.13-0.93
					c0.29-0.36,0.6-0.69,0.83-1.03c0.2-0.36,0.39-0.71,0.56-1.02c0.14-0.33,0.22-0.65,0.31-0.94c0.23-0.56,0.18-1.05,0.24-1.36
					C49.32,72.66,49.34,72.49,49.34,72.49z"/>
			</g>
		</g>
		<g>
			<path style="fill:#F5846E;" d="M327.58,42.99c0,6.64-12.02,22.07-12.02,22.07s-12.02-15.43-12.02-22.07s5.38-12.02,12.02-12.02
				C322.2,30.98,327.58,36.36,327.58,42.99z"/>
			<g>
				<path style="fill:#1B2E37;" d="M322.54,42.99c0,0-0.02,0.17-0.05,0.49c-0.06,0.31,0,0.8-0.22,1.37
					c-0.09,0.28-0.17,0.61-0.3,0.95c-0.17,0.32-0.36,0.66-0.55,1.03c-0.23,0.34-0.54,0.67-0.83,1.04c-0.33,0.33-0.73,0.63-1.12,0.96
					c-0.88,0.53-1.91,1.05-3.11,1.15c-1.21,0.22-2.43-0.03-3.68-0.49c-1.21-0.53-2.28-1.42-3.09-2.55
					c-0.76-1.18-1.16-2.53-1.22-3.99c0.05-1.34,0.46-2.79,1.22-3.94c0.81-1.13,1.88-2.02,3.09-2.55c1.22-0.45,2.5-0.71,3.68-0.49
					c1.18,0.1,2.24,0.63,3.11,1.15c0.4,0.33,0.79,0.64,1.12,0.97c0.29,0.37,0.59,0.7,0.83,1.04c0.2,0.37,0.38,0.71,0.55,1.03
					c0.14,0.33,0.21,0.66,0.3,0.94c0.22,0.56,0.16,1.05,0.22,1.37C322.52,42.82,322.54,42.99,322.54,42.99z M322.54,42.99
					c0,0-0.02-0.17-0.05-0.49c-0.06-0.31-0.01-0.8-0.24-1.36c-0.1-0.28-0.17-0.61-0.31-0.94c-0.17-0.32-0.36-0.66-0.56-1.02
					c-0.24-0.34-0.54-0.66-0.83-1.03c-0.33-0.32-0.73-0.61-1.13-0.93c-0.89-0.5-1.89-0.98-3.07-1.04c-1.16-0.18-2.39,0.11-3.54,0.57
					c-1.14,0.54-2.13,1.42-2.89,2.48c-0.71,1.13-1.06,2.38-1.12,3.78c0.05,1.29,0.41,2.63,1.12,3.73c0.76,1.07,1.75,1.94,2.89,2.49
					c0.28,0.14,0.58,0.2,0.87,0.31c0.29,0.1,0.58,0.2,0.89,0.21c0.31,0.04,0.61,0.07,0.91,0.1c0.28,0.01,0.58-0.04,0.87-0.06
					c1.17-0.06,2.19-0.55,3.08-1.04c0.4-0.32,0.8-0.61,1.13-0.93c0.29-0.36,0.6-0.69,0.83-1.03c0.2-0.36,0.39-0.71,0.56-1.02
					c0.14-0.33,0.22-0.65,0.31-0.94c0.23-0.56,0.18-1.05,0.24-1.36C322.52,43.16,322.54,42.99,322.54,42.99z"/>
			</g>
		</g>
		<g>
			<path style="fill:#F5846E;" d="M236.78,113.04c0,4.45-8.06,14.8-8.06,14.8s-8.06-10.35-8.06-14.8c0-4.45,3.61-8.06,8.06-8.06
				C233.17,104.98,236.78,108.59,236.78,113.04z"/>
			<g>
				<path style="fill:#1B2E37;" d="M233.4,113.04c0,0-0.01,0.11-0.03,0.33c-0.04,0.21,0,0.54-0.15,0.92
					c-0.06,0.19-0.11,0.41-0.2,0.63c-0.11,0.21-0.24,0.45-0.37,0.69c-0.16,0.23-0.36,0.45-0.55,0.7c-0.22,0.22-0.49,0.43-0.75,0.65
					c-0.59,0.36-1.28,0.72-2.09,0.79c-0.83,0.15-1.63-0.01-2.49-0.31c-0.82-0.35-1.55-0.95-2.1-1.72c-0.52-0.8-0.79-1.71-0.84-2.71
					c0.04-0.89,0.32-1.89,0.84-2.67c0.55-0.76,1.28-1.37,2.1-1.72c0.83-0.3,1.7-0.47,2.49-0.31c0.79,0.07,1.51,0.43,2.09,0.79
					c0.26,0.23,0.53,0.43,0.75,0.65c0.19,0.25,0.4,0.47,0.55,0.7c0.13,0.25,0.26,0.48,0.37,0.69c0.09,0.22,0.14,0.44,0.2,0.63
					c0.15,0.38,0.11,0.71,0.15,0.92C233.39,112.92,233.4,113.04,233.4,113.04z M233.4,113.04c0,0-0.01-0.11-0.04-0.33
					c-0.04-0.21-0.01-0.54-0.16-0.91c-0.07-0.19-0.12-0.41-0.21-0.63c-0.12-0.21-0.24-0.44-0.38-0.68
					c-0.16-0.23-0.36-0.44-0.56-0.69c-0.22-0.22-0.49-0.41-0.76-0.62c-0.6-0.33-1.26-0.64-2.06-0.68c-0.77-0.12-1.59,0.09-2.35,0.4
					c-0.75,0.37-1.4,0.95-1.91,1.66c-0.46,0.75-0.69,1.56-0.73,2.5c0.03,0.83,0.26,1.73,0.73,2.46c0.5,0.71,1.15,1.29,1.91,1.66
					c0.73,0.3,1.61,0.51,2.35,0.4c0.78-0.04,1.46-0.35,2.06-0.68c0.27-0.21,0.54-0.4,0.76-0.62c0.2-0.24,0.4-0.46,0.56-0.69
					c0.13-0.24,0.26-0.47,0.38-0.68c0.09-0.22,0.15-0.44,0.21-0.63c0.15-0.38,0.12-0.7,0.16-0.91
					C233.39,113.15,233.4,113.04,233.4,113.04z"/>
			</g>
		</g>
		<g>
			<path style="fill:#F5846E;" d="M180.77,71.13c0,4.45-8.06,14.8-8.06,14.8s-8.06-10.35-8.06-14.8s3.61-8.06,8.06-8.06
				C177.17,63.08,180.77,66.68,180.77,71.13z"/>
			<g>
				<path style="fill:#1B2E37;" d="M177.4,71.13c0,0-0.01,0.11-0.03,0.33c-0.04,0.21,0,0.54-0.15,0.92
					c-0.06,0.19-0.11,0.41-0.2,0.63c-0.11,0.21-0.24,0.45-0.37,0.69c-0.16,0.23-0.36,0.45-0.55,0.7c-0.22,0.22-0.49,0.43-0.75,0.65
					c-0.59,0.36-1.28,0.72-2.09,0.79c-0.83,0.15-1.63-0.01-2.49-0.31c-0.82-0.35-1.55-0.95-2.1-1.72c-0.52-0.8-0.79-1.71-0.84-2.71
					c0.04-0.89,0.32-1.9,0.84-2.67c0.55-0.76,1.28-1.37,2.1-1.72c0.83-0.3,1.7-0.47,2.49-0.31c0.79,0.07,1.51,0.43,2.09,0.79
					c0.26,0.23,0.53,0.43,0.75,0.65c0.19,0.25,0.4,0.47,0.55,0.7c0.13,0.25,0.26,0.48,0.37,0.69c0.09,0.22,0.14,0.44,0.2,0.63
					c0.15,0.38,0.11,0.71,0.15,0.92C177.39,71.02,177.4,71.13,177.4,71.13z M177.4,71.13c0,0-0.01-0.11-0.04-0.33
					c-0.04-0.21-0.01-0.54-0.16-0.91c-0.07-0.19-0.12-0.41-0.21-0.63c-0.12-0.21-0.24-0.44-0.38-0.68
					c-0.16-0.23-0.36-0.44-0.56-0.69c-0.22-0.22-0.49-0.41-0.76-0.62c-0.6-0.33-1.26-0.64-2.06-0.68c-0.77-0.12-1.59,0.09-2.35,0.4
					c-0.75,0.37-1.4,0.95-1.91,1.66c-0.46,0.75-0.69,1.56-0.73,2.5c0.03,0.83,0.26,1.73,0.73,2.46c0.5,0.71,1.15,1.29,1.91,1.66
					c0.73,0.3,1.61,0.51,2.35,0.4c0.78-0.04,1.46-0.35,2.06-0.68c0.27-0.21,0.54-0.4,0.76-0.62c0.2-0.24,0.4-0.46,0.56-0.69
					c0.13-0.24,0.26-0.47,0.38-0.68c0.09-0.22,0.15-0.44,0.21-0.63c0.15-0.38,0.12-0.7,0.16-0.91
					C177.38,71.25,177.4,71.13,177.4,71.13z"/>
			</g>
		</g>
		<g>
			<path style="fill:#879FD1;" d="M404.07,72.49c0,6.64-12.02,22.07-12.02,22.07s-12.02-15.43-12.02-22.07s5.38-12.02,12.02-12.02
				S404.07,65.85,404.07,72.49z"/>
			<g>
				<path style="fill:#1B2E37;" d="M399.04,72.49c0,0-0.02,0.17-0.05,0.49c-0.06,0.31,0,0.8-0.22,1.37
					c-0.09,0.28-0.17,0.61-0.31,0.94c-0.17,0.32-0.36,0.66-0.55,1.03c-0.23,0.34-0.54,0.68-0.83,1.04
					c-0.33,0.33-0.73,0.63-1.12,0.96c-0.88,0.53-1.91,1.05-3.11,1.15c-1.21,0.22-2.43-0.03-3.68-0.49
					c-1.21-0.53-2.28-1.42-3.09-2.55c-0.76-1.18-1.16-2.53-1.22-3.99c0.05-1.34,0.46-2.79,1.22-3.94c0.81-1.13,1.88-2.02,3.09-2.55
					c1.22-0.45,2.5-0.71,3.68-0.49c1.18,0.1,2.24,0.63,3.11,1.15c0.4,0.33,0.79,0.64,1.12,0.96c0.29,0.37,0.59,0.7,0.83,1.04
					c0.2,0.37,0.38,0.71,0.55,1.03c0.14,0.33,0.21,0.66,0.3,0.94c0.22,0.56,0.16,1.05,0.22,1.37
					C399.02,72.32,399.04,72.49,399.04,72.49z M399.04,72.49c0,0-0.02-0.17-0.05-0.49c-0.06-0.31-0.01-0.8-0.24-1.36
					c-0.1-0.28-0.17-0.61-0.31-0.94c-0.17-0.32-0.36-0.66-0.56-1.02c-0.24-0.34-0.54-0.66-0.83-1.03c-0.33-0.32-0.73-0.61-1.13-0.93
					c-0.89-0.5-1.89-0.98-3.07-1.04c-1.16-0.18-2.39,0.11-3.54,0.57c-1.14,0.54-2.13,1.42-2.89,2.48c-0.71,1.13-1.06,2.38-1.12,3.78
					c0.05,1.29,0.41,2.63,1.12,3.73c0.76,1.07,1.75,1.94,2.89,2.49c0.28,0.14,0.58,0.2,0.87,0.31c0.29,0.1,0.58,0.2,0.89,0.21
					c0.31,0.04,0.61,0.07,0.91,0.1c0.28,0.01,0.58-0.04,0.87-0.06c1.17-0.06,2.19-0.55,3.08-1.04c0.4-0.32,0.8-0.61,1.13-0.93
					c0.29-0.36,0.6-0.69,0.83-1.03c0.2-0.36,0.39-0.71,0.56-1.02c0.14-0.33,0.22-0.65,0.31-0.94c0.23-0.56,0.18-1.05,0.24-1.36
					C399.02,72.66,399.04,72.49,399.04,72.49z"/>
			</g>
		</g>
	</g>
</g>
</svg>
